<?xml version="1.0" encoding="UTF-8"?>
<svg xmlns="http://www.w3.org/2000/svg" xmlns:xlink="http://www.w3.org/1999/xlink" width="594.666667" height="176" viewBox="0 0 594.666667 176" version="1.1">
<defs>
<clipPath id="clip1">
  <path d="M 9.5 60.707031 L 15.832031 60.707031 L 15.832031 67 L 9.5 67 Z M 9.5 60.707031 "/>
</clipPath>
<clipPath id="clip2">
  <path d="M 86.035156 51.371094 L 92.371094 51.371094 L 92.371094 57.703125 L 86.035156 57.703125 Z M 86.035156 51.371094 "/>
</clipPath>
<clipPath id="clip3">
  <path d="M 386 15 L 392 15 L 392 22 L 386 22 Z M 386 15 "/>
</clipPath>
<clipPath id="clip4">
  <path d="M 385.949219 21.996094 L 392.613281 21.875 L 392.496094 15.214844 L 385.828125 15.328125 Z M 385.949219 21.996094 "/>
</clipPath>
<clipPath id="clip5">
  <path d="M 385.832031 15.496094 L 392.167969 15.386719 L 392.277344 21.71875 L 385.941406 21.828125 Z M 385.832031 15.496094 "/>
</clipPath>
<clipPath id="clip6">
  <path d="M 385.941406 21.828125 L 392.277344 21.71875 L 392.167969 15.386719 L 385.832031 15.496094 Z M 385.941406 21.828125 "/>
</clipPath>
<clipPath id="clip7">
  <path d="M 178 15 L 184 15 L 184 21.332031 L 178 21.332031 Z M 178 15 "/>
</clipPath>
<clipPath id="clip8">
  <path d="M 177.9375 21.589844 L 184.605469 21.472656 L 184.484375 14.808594 L 177.816406 14.921875 Z M 177.9375 21.589844 "/>
</clipPath>
<clipPath id="clip9">
  <path d="M 177.824219 15.089844 L 184.15625 14.980469 L 184.265625 21.3125 L 177.933594 21.421875 Z M 177.824219 15.089844 "/>
</clipPath>
<clipPath id="clip10">
  <path d="M 177.933594 21.421875 L 184.265625 21.3125 L 184.15625 14.980469 L 177.824219 15.089844 Z M 177.933594 21.421875 "/>
</clipPath>
</defs>
<g id="surface1">
<path style=" stroke:none;fill-rule:nonzero;fill:rgb(40.000001%,74.901962%,100%);fill-opacity:1;" d="M 116.214844 52.589844 L 116.214844 106.410156 L 126.519531 106.410156 L 126.519531 52.589844 Z M 116.214844 52.589844 "/>
<path style="fill:none;stroke-width:1;stroke-linecap:round;stroke-linejoin:round;stroke:rgb(0%,0%,0%);stroke-opacity:1;stroke-miterlimit:10;" d="M 283.442383 -435.889648 L 323.807617 -435.889648 L 323.807617 -428.161133 L 283.442383 -428.161133 Z M 283.442383 -435.889648 " transform="matrix(0,1.333333,-1.333333,0,-454.666667,-325.333333)"/>
<path style="fill:none;stroke-width:1;stroke-linecap:round;stroke-linejoin:round;stroke:rgb(0%,0%,0%);stroke-opacity:1;stroke-dasharray:4,4;stroke-miterlimit:10;" d="M 278.579102 -607.047852 L 328.351562 -607.047852 L 328.351562 -540.397461 L 278.579102 -540.397461 Z M 278.579102 -607.047852 " transform="matrix(0,1.333333,-1.333333,0,-454.666667,-325.333333)"/>
<path style=" stroke:none;fill-rule:nonzero;fill:rgb(69.803923%,85.09804%,100%);fill-opacity:1;" d="M 272.421875 52.589844 L 272.421875 106.410156 L 282.730469 106.410156 L 282.730469 52.589844 Z M 272.421875 52.589844 "/>
<path style="fill:none;stroke-width:1;stroke-linecap:round;stroke-linejoin:round;stroke:rgb(0%,0%,0%);stroke-opacity:1;stroke-miterlimit:10;" d="M 283.442383 -553.047852 L 323.807617 -553.047852 L 323.807617 -545.316406 L 283.442383 -545.316406 Z M 283.442383 -553.047852 " transform="matrix(0,1.333333,-1.333333,0,-454.666667,-325.333333)"/>
<path style="fill:none;stroke-width:1;stroke-linecap:round;stroke-linejoin:round;stroke:rgb(0%,0%,0%);stroke-opacity:1;stroke-miterlimit:10;" d="M 303.756836 -532.305664 L 303.683594 -541.81543 " transform="matrix(0,1.333333,-1.333333,0,-454.666667,-325.333333)"/>
<path style="fill:none;stroke-width:1;stroke-linecap:butt;stroke-linejoin:miter;stroke:rgb(0%,0%,0%);stroke-opacity:1;stroke-miterlimit:10;" d="M 303.671875 -543.415039 L 303.683594 -541.81543 M 303.083008 -541.80957 L 303.671875 -543.415039 L 304.28125 -541.821289 " transform="matrix(0,1.333333,-1.333333,0,-454.666667,-325.333333)"/>
<path style="fill-rule:nonzero;fill:rgb(40.000001%,74.901962%,100%);fill-opacity:1;stroke-width:1;stroke-linecap:round;stroke-linejoin:round;stroke:rgb(0%,0%,0%);stroke-opacity:1;stroke-miterlimit:10;" d="M 305.514648 -616.422852 C 306.645508 -615.289062 306.645508 -613.452148 305.514648 -612.321289 C 304.383789 -611.1875 302.546875 -611.1875 301.413086 -612.321289 C 300.282227 -613.452148 300.282227 -615.289062 301.413086 -616.422852 C 302.546875 -617.550781 304.383789 -617.550781 305.514648 -616.422852 " transform="matrix(0,1.333333,-1.333333,0,-454.666667,-325.333333)"/>
<path style=" stroke:none;fill-rule:nonzero;fill:rgb(0%,0%,0%);fill-opacity:1;" d="M 362.707031 79.195312 L 364.019531 79.195312 L 364.019531 77.902344 L 364.5625 77.902344 L 364.5625 79.195312 L 365.851562 79.195312 L 365.851562 79.757812 L 364.5625 79.757812 L 364.5625 81.046875 L 364.019531 81.046875 L 364.019531 79.757812 L 362.707031 79.757812 Z M 362.707031 79.195312 "/>
<path style="fill:none;stroke-width:1;stroke-linecap:round;stroke-linejoin:round;stroke:rgb(0%,0%,0%);stroke-opacity:1;stroke-miterlimit:10;" d="M 283.442383 -565.329102 L 323.807617 -565.329102 L 323.807617 -557.597656 L 283.442383 -557.597656 Z M 283.442383 -565.329102 " transform="matrix(0,1.333333,-1.333333,0,-454.666667,-325.333333)"/>
<path style=" stroke:none;fill-rule:nonzero;fill:rgb(40.000001%,74.901962%,100%);fill-opacity:1;" d="M 374.253906 52.589844 L 374.253906 106.410156 L 384.5625 106.410156 L 384.5625 52.589844 Z M 374.253906 52.589844 "/>
<path style="fill:none;stroke-width:1;stroke-linecap:round;stroke-linejoin:round;stroke:rgb(0%,0%,0%);stroke-opacity:1;stroke-miterlimit:10;" d="M 283.442383 -629.421875 L 323.807617 -629.421875 L 323.807617 -621.69043 L 283.442383 -621.69043 Z M 283.442383 -629.421875 " transform="matrix(0,1.333333,-1.333333,0,-454.666667,-325.333333)"/>
<path style=" stroke:none;fill-rule:nonzero;fill:rgb(40.000001%,74.901962%,100%);fill-opacity:1;" d="M 305.171875 52.589844 L 305.171875 106.410156 L 315.480469 106.410156 L 315.480469 52.589844 Z M 305.171875 52.589844 "/>
<path style="fill:none;stroke-width:1;stroke-linecap:round;stroke-linejoin:round;stroke:rgb(0%,0%,0%);stroke-opacity:1;stroke-miterlimit:10;" d="M 283.442383 -577.610352 L 323.807617 -577.610352 L 323.807617 -569.878906 L 283.442383 -569.878906 Z M 283.442383 -577.610352 " transform="matrix(0,1.333333,-1.333333,0,-454.666667,-325.333333)"/>
<path style="fill:none;stroke-width:1;stroke-linecap:round;stroke-linejoin:round;stroke:rgb(0%,0%,0%);stroke-opacity:1;stroke-miterlimit:10;" d="M 303.625 -553.047852 L 303.625 -554.09668 " transform="matrix(0,1.333333,-1.333333,0,-454.666667,-325.333333)"/>
<path style="fill:none;stroke-width:1;stroke-linecap:butt;stroke-linejoin:miter;stroke:rgb(0%,0%,0%);stroke-opacity:1;stroke-miterlimit:10;" d="M 303.625 -555.699219 L 303.625 -554.09668 M 303.024414 -554.09668 L 303.625 -555.699219 L 304.225586 -554.09668 " transform="matrix(0,1.333333,-1.333333,0,-454.666667,-325.333333)"/>
<path style="fill:none;stroke-width:1;stroke-linecap:round;stroke-linejoin:round;stroke:rgb(0%,0%,0%);stroke-opacity:1;stroke-miterlimit:10;" d="M 303.625 -565.329102 L 303.625 -566.37793 " transform="matrix(0,1.333333,-1.333333,0,-454.666667,-325.333333)"/>
<path style="fill:none;stroke-width:1;stroke-linecap:butt;stroke-linejoin:miter;stroke:rgb(0%,0%,0%);stroke-opacity:1;stroke-miterlimit:10;" d="M 303.625 -567.980469 L 303.625 -566.37793 M 303.024414 -566.37793 L 303.625 -567.980469 L 304.225586 -566.37793 " transform="matrix(0,1.333333,-1.333333,0,-454.666667,-325.333333)"/>
<path style="fill:none;stroke-width:1;stroke-linecap:round;stroke-linejoin:round;stroke:rgb(0%,0%,0%);stroke-opacity:1;stroke-miterlimit:10;" d="M 303.586914 -603.160156 L 303.53125 -607.973633 " transform="matrix(0,1.333333,-1.333333,0,-454.666667,-325.333333)"/>
<path style="fill:none;stroke-width:1;stroke-linecap:butt;stroke-linejoin:miter;stroke:rgb(0%,0%,0%);stroke-opacity:1;stroke-miterlimit:10;" d="M 303.516602 -609.570312 L 303.53125 -607.973633 M 302.933594 -607.964844 L 303.516602 -609.570312 L 304.131836 -607.979492 " transform="matrix(0,1.333333,-1.333333,0,-454.666667,-325.333333)"/>
<path style="fill:none;stroke-width:1;stroke-linecap:round;stroke-linejoin:round;stroke:rgb(0%,0%,0%);stroke-opacity:1;stroke-miterlimit:10;" d="M 303.507812 -617.269531 L 303.519531 -618.192383 " transform="matrix(0,1.333333,-1.333333,0,-454.666667,-325.333333)"/>
<path style="fill:none;stroke-width:1;stroke-linecap:butt;stroke-linejoin:miter;stroke:rgb(0%,0%,0%);stroke-opacity:1;stroke-miterlimit:10;" d="M 303.542969 -619.791992 L 303.519531 -618.192383 M 302.918945 -618.204102 L 303.542969 -619.791992 L 304.120117 -618.183594 " transform="matrix(0,1.333333,-1.333333,0,-454.666667,-325.333333)"/>
<path style="fill:none;stroke-width:1;stroke-linecap:round;stroke-linejoin:round;stroke:rgb(0%,0%,0%);stroke-opacity:1;stroke-miterlimit:10;" d="M 303.727539 -535.929688 L 352.049805 -535.929688 C 353.708008 -535.929688 355.049805 -537.268555 355.049805 -538.929688 L 355.049805 -566.360352 " transform="matrix(0,1.333333,-1.333333,0,-454.666667,-325.333333)"/>
<path style="fill:none;stroke-width:1;stroke-linecap:butt;stroke-linejoin:miter;stroke:rgb(0%,0%,0%);stroke-opacity:1;stroke-miterlimit:10;" d="M 355.049805 -567.957031 L 355.049805 -566.360352 M 354.452148 -566.360352 L 355.049805 -567.957031 L 355.65332 -566.360352 " transform="matrix(0,1.333333,-1.333333,0,-454.666667,-325.333333)"/>
<path style=" stroke:none;fill-rule:nonzero;fill:rgb(69.803923%,85.09804%,100%);fill-opacity:1;" d="M 322.863281 52.589844 L 322.863281 106.410156 L 333.171875 106.410156 L 333.171875 52.589844 Z M 322.863281 52.589844 "/>
<path style="fill:none;stroke-width:1;stroke-linecap:round;stroke-linejoin:round;stroke:rgb(0%,0%,0%);stroke-opacity:1;stroke-miterlimit:10;" d="M 283.442383 -590.878906 L 323.807617 -590.878906 L 323.807617 -583.147461 L 283.442383 -583.147461 Z M 283.442383 -590.878906 " transform="matrix(0,1.333333,-1.333333,0,-454.666667,-325.333333)"/>
<path style="fill:none;stroke-width:1;stroke-linecap:round;stroke-linejoin:round;stroke:rgb(0%,0%,0%);stroke-opacity:1;stroke-miterlimit:10;" d="M 303.625 -577.610352 L 303.625 -579.649414 " transform="matrix(0,1.333333,-1.333333,0,-454.666667,-325.333333)"/>
<path style="fill:none;stroke-width:1;stroke-linecap:butt;stroke-linejoin:miter;stroke:rgb(0%,0%,0%);stroke-opacity:1;stroke-miterlimit:10;" d="M 303.625 -581.249023 L 303.625 -579.649414 M 303.024414 -579.649414 L 303.625 -581.249023 L 304.225586 -579.649414 " transform="matrix(0,1.333333,-1.333333,0,-454.666667,-325.333333)"/>
<path style="fill:none;stroke-width:1;stroke-linecap:round;stroke-linejoin:round;stroke:rgb(0%,0%,0%);stroke-opacity:1;stroke-miterlimit:10;" d="M 283.442383 -603.160156 L 323.807617 -603.160156 L 323.807617 -595.43457 L 283.442383 -595.43457 Z M 283.442383 -603.160156 " transform="matrix(0,1.333333,-1.333333,0,-454.666667,-325.333333)"/>
<path style="fill:none;stroke-width:1;stroke-linecap:round;stroke-linejoin:round;stroke:rgb(0%,0%,0%);stroke-opacity:1;stroke-miterlimit:10;" d="M 303.625 -590.878906 L 303.625 -591.933594 " transform="matrix(0,1.333333,-1.333333,0,-454.666667,-325.333333)"/>
<path style="fill:none;stroke-width:1;stroke-linecap:butt;stroke-linejoin:miter;stroke:rgb(0%,0%,0%);stroke-opacity:1;stroke-miterlimit:10;" d="M 303.625 -593.530273 L 303.625 -591.933594 M 303.024414 -591.933594 L 303.625 -593.530273 L 304.225586 -591.933594 " transform="matrix(0,1.333333,-1.333333,0,-454.666667,-325.333333)"/>
<path style=" stroke:none;fill-rule:nonzero;fill:rgb(69.803923%,85.09804%,100%);fill-opacity:1;" d="M 305.144531 121.15625 L 305.144531 174.980469 L 315.453125 174.980469 L 315.453125 121.15625 Z M 305.144531 121.15625 "/>
<path style="fill:none;stroke-width:1;stroke-linecap:round;stroke-linejoin:round;stroke:rgb(0%,0%,0%);stroke-opacity:1;stroke-miterlimit:10;" d="M 334.867188 -577.589844 L 375.235352 -577.589844 L 375.235352 -569.858398 L 334.867188 -569.858398 Z M 334.867188 -577.589844 " transform="matrix(0,1.333333,-1.333333,0,-454.666667,-325.333333)"/>
<path style="fill:none;stroke-width:1;stroke-linecap:round;stroke-linejoin:round;stroke:rgb(0%,0%,0%);stroke-opacity:1;stroke-miterlimit:10;" d="M 355.049805 -577.589844 L 355.049805 -611.37207 C 355.049805 -613.027344 353.708008 -614.37207 352.049805 -614.37207 L 309.862305 -614.37207 " transform="matrix(0,1.333333,-1.333333,0,-454.666667,-325.333333)"/>
<path style="fill:none;stroke-width:1;stroke-linecap:butt;stroke-linejoin:miter;stroke:rgb(0%,0%,0%);stroke-opacity:1;stroke-miterlimit:10;" d="M 308.262695 -614.37207 L 309.862305 -614.37207 M 309.862305 -613.768555 L 308.262695 -614.37207 L 309.862305 -614.969727 " transform="matrix(0,1.333333,-1.333333,0,-454.666667,-325.333333)"/>
<path style="fill:none;stroke-width:1;stroke-linecap:round;stroke-linejoin:round;stroke:rgb(0%,0%,0%);stroke-opacity:1;stroke-dasharray:4,4;stroke-miterlimit:10;" d="M 278.737305 -509.928711 L 328.512695 -509.928711 L 328.512695 -443.27832 L 278.737305 -443.27832 Z M 278.737305 -509.928711 " transform="matrix(0,1.333333,-1.333333,0,-454.666667,-325.333333)"/>
<path style=" stroke:none;fill-rule:nonzero;fill:rgb(69.803923%,85.09804%,100%);fill-opacity:1;" d="M 142.925781 52.800781 L 142.925781 106.625 L 153.234375 106.625 L 153.234375 52.800781 Z M 142.925781 52.800781 "/>
<path style="fill:none;stroke-width:1;stroke-linecap:round;stroke-linejoin:round;stroke:rgb(0%,0%,0%);stroke-opacity:1;stroke-miterlimit:10;" d="M 283.600586 -455.925781 L 323.96875 -455.925781 L 323.96875 -448.194336 L 283.600586 -448.194336 Z M 283.600586 -455.925781 " transform="matrix(0,1.333333,-1.333333,0,-454.666667,-325.333333)"/>
<path style="fill:none;stroke-width:1;stroke-linecap:round;stroke-linejoin:round;stroke:rgb(0%,0%,0%);stroke-opacity:1;stroke-miterlimit:10;" d="M 303.657227 -435.889648 L 303.727539 -444.696289 " transform="matrix(0,1.333333,-1.333333,0,-454.666667,-325.333333)"/>
<path style="fill:none;stroke-width:1;stroke-linecap:butt;stroke-linejoin:miter;stroke:rgb(0%,0%,0%);stroke-opacity:1;stroke-miterlimit:10;" d="M 303.739258 -446.295898 L 303.727539 -444.696289 M 303.129883 -444.699219 L 303.739258 -446.295898 L 304.328125 -444.69043 " transform="matrix(0,1.333333,-1.333333,0,-454.666667,-325.333333)"/>
<path style="fill-rule:nonzero;fill:rgb(40.000001%,74.901962%,100%);fill-opacity:1;stroke-width:1;stroke-linecap:round;stroke-linejoin:round;stroke:rgb(0%,0%,0%);stroke-opacity:1;stroke-miterlimit:10;" d="M 305.675781 -519.300781 C 306.80957 -518.166992 306.80957 -516.333008 305.675781 -515.199219 C 304.541992 -514.071289 302.708008 -514.071289 301.574219 -515.199219 C 300.446289 -516.333008 300.446289 -518.166992 301.574219 -519.300781 C 302.708008 -520.43457 304.541992 -520.43457 305.675781 -519.300781 " transform="matrix(0,1.333333,-1.333333,0,-454.666667,-325.333333)"/>
<path style=" stroke:none;fill-rule:nonzero;fill:rgb(0%,0%,0%);fill-opacity:1;" d="M 233.214844 79.410156 L 234.527344 79.410156 L 234.527344 78.117188 L 235.066406 78.117188 L 235.066406 79.410156 L 236.359375 79.410156 L 236.359375 79.972656 L 235.066406 79.972656 L 235.066406 81.261719 L 234.527344 81.261719 L 234.527344 79.972656 L 233.214844 79.972656 Z M 233.214844 79.410156 "/>
<path style="fill:none;stroke-width:1;stroke-linecap:round;stroke-linejoin:round;stroke:rgb(0%,0%,0%);stroke-opacity:1;stroke-miterlimit:10;" d="M 283.600586 -468.207031 L 323.96875 -468.207031 L 323.96875 -460.475586 L 283.600586 -460.475586 Z M 283.600586 -468.207031 " transform="matrix(0,1.333333,-1.333333,0,-454.666667,-325.333333)"/>
<path style=" stroke:none;fill-rule:nonzero;fill:rgb(40.000001%,74.901962%,100%);fill-opacity:1;" d="M 244.765625 52.800781 L 244.765625 106.625 L 255.074219 106.625 L 255.074219 52.800781 Z M 244.765625 52.800781 "/>
<path style="fill:none;stroke-width:1;stroke-linecap:round;stroke-linejoin:round;stroke:rgb(0%,0%,0%);stroke-opacity:1;stroke-miterlimit:10;" d="M 283.600586 -532.305664 L 323.96875 -532.305664 L 323.96875 -524.574219 L 283.600586 -524.574219 Z M 283.600586 -532.305664 " transform="matrix(0,1.333333,-1.333333,0,-454.666667,-325.333333)"/>
<path style=" stroke:none;fill-rule:nonzero;fill:rgb(40.000001%,74.901962%,100%);fill-opacity:1;" d="M 175.675781 52.800781 L 175.675781 106.625 L 185.984375 106.625 L 185.984375 52.800781 Z M 175.675781 52.800781 "/>
<path style="fill:none;stroke-width:1;stroke-linecap:round;stroke-linejoin:round;stroke:rgb(0%,0%,0%);stroke-opacity:1;stroke-miterlimit:10;" d="M 283.600586 -480.488281 L 323.96875 -480.488281 L 323.96875 -472.756836 L 283.600586 -472.756836 Z M 283.600586 -480.488281 " transform="matrix(0,1.333333,-1.333333,0,-454.666667,-325.333333)"/>
<path style="fill:none;stroke-width:1;stroke-linecap:round;stroke-linejoin:round;stroke:rgb(0%,0%,0%);stroke-opacity:1;stroke-miterlimit:10;" d="M 303.786133 -455.925781 L 303.786133 -456.977539 " transform="matrix(0,1.333333,-1.333333,0,-454.666667,-325.333333)"/>
<path style="fill:none;stroke-width:1;stroke-linecap:butt;stroke-linejoin:miter;stroke:rgb(0%,0%,0%);stroke-opacity:1;stroke-miterlimit:10;" d="M 303.786133 -458.577148 L 303.786133 -456.977539 M 303.188477 -456.977539 L 303.786133 -458.577148 L 304.386719 -456.977539 " transform="matrix(0,1.333333,-1.333333,0,-454.666667,-325.333333)"/>
<path style="fill:none;stroke-width:1;stroke-linecap:round;stroke-linejoin:round;stroke:rgb(0%,0%,0%);stroke-opacity:1;stroke-miterlimit:10;" d="M 303.786133 -468.207031 L 303.786133 -469.258789 " transform="matrix(0,1.333333,-1.333333,0,-454.666667,-325.333333)"/>
<path style="fill:none;stroke-width:1;stroke-linecap:butt;stroke-linejoin:miter;stroke:rgb(0%,0%,0%);stroke-opacity:1;stroke-miterlimit:10;" d="M 303.786133 -470.858398 L 303.786133 -469.258789 M 303.188477 -469.258789 L 303.786133 -470.858398 L 304.386719 -469.258789 " transform="matrix(0,1.333333,-1.333333,0,-454.666667,-325.333333)"/>
<path style="fill:none;stroke-width:1;stroke-linecap:round;stroke-linejoin:round;stroke:rgb(0%,0%,0%);stroke-opacity:1;stroke-miterlimit:10;" d="M 303.745117 -506.043945 L 303.695312 -510.851562 " transform="matrix(0,1.333333,-1.333333,0,-454.666667,-325.333333)"/>
<path style="fill:none;stroke-width:1;stroke-linecap:butt;stroke-linejoin:miter;stroke:rgb(0%,0%,0%);stroke-opacity:1;stroke-miterlimit:10;" d="M 303.674805 -512.454102 L 303.695312 -510.851562 M 303.094727 -510.842773 L 303.674805 -512.454102 L 304.292969 -510.860352 " transform="matrix(0,1.333333,-1.333333,0,-454.666667,-325.333333)"/>
<path style="fill:none;stroke-width:1;stroke-linecap:round;stroke-linejoin:round;stroke:rgb(0%,0%,0%);stroke-opacity:1;stroke-miterlimit:10;" d="M 303.668945 -520.147461 L 303.680664 -521.073242 " transform="matrix(0,1.333333,-1.333333,0,-454.666667,-325.333333)"/>
<path style="fill:none;stroke-width:1;stroke-linecap:butt;stroke-linejoin:miter;stroke:rgb(0%,0%,0%);stroke-opacity:1;stroke-miterlimit:10;" d="M 303.704102 -522.672852 L 303.680664 -521.073242 M 303.083008 -521.082031 L 303.704102 -522.672852 L 304.28125 -521.061523 " transform="matrix(0,1.333333,-1.333333,0,-454.666667,-325.333333)"/>
<path style="fill:none;stroke-width:1;stroke-linecap:round;stroke-linejoin:round;stroke:rgb(0%,0%,0%);stroke-opacity:1;stroke-miterlimit:10;" d="M 303.692383 -440.120117 L 313.682617 -440.120117 C 313.688477 -440.120117 313.691406 -440.120117 313.700195 -440.120117 L 330.44043 -440.032227 C 332.101562 -440.020508 333.449219 -441.356445 333.460938 -443.014648 C 333.460938 -443.014648 333.460938 -443.020508 333.460938 -443.023438 L 333.663086 -513.488281 C 333.663086 -513.491211 333.663086 -513.49707 333.663086 -513.49707 L 333.663086 -515.37207 C 333.663086 -516.40918 332.825195 -517.25 331.785156 -517.25 L 310.023438 -517.25 " transform="matrix(0,1.333333,-1.333333,0,-454.666667,-325.333333)"/>
<path style="fill:none;stroke-width:1;stroke-linecap:butt;stroke-linejoin:miter;stroke:rgb(0%,0%,0%);stroke-opacity:1;stroke-miterlimit:10;" d="M 308.426758 -517.25 L 310.023438 -517.25 M 310.023438 -516.652344 L 308.426758 -517.25 L 310.023438 -517.850586 " transform="matrix(0,1.333333,-1.333333,0,-454.666667,-325.333333)"/>
<path style=" stroke:none;fill-rule:nonzero;fill:rgb(69.803923%,85.09804%,100%);fill-opacity:1;" d="M 193.375 52.800781 L 193.375 106.625 L 203.675781 106.625 L 203.675781 52.800781 Z M 193.375 52.800781 "/>
<path style="fill:none;stroke-width:1;stroke-linecap:round;stroke-linejoin:round;stroke:rgb(0%,0%,0%);stroke-opacity:1;stroke-miterlimit:10;" d="M 283.600586 -493.756836 L 323.96875 -493.756836 L 323.96875 -486.03125 L 283.600586 -486.03125 Z M 283.600586 -493.756836 " transform="matrix(0,1.333333,-1.333333,0,-454.666667,-325.333333)"/>
<path style="fill:none;stroke-width:1;stroke-linecap:round;stroke-linejoin:round;stroke:rgb(0%,0%,0%);stroke-opacity:1;stroke-miterlimit:10;" d="M 303.786133 -480.488281 L 303.786133 -482.530273 " transform="matrix(0,1.333333,-1.333333,0,-454.666667,-325.333333)"/>
<path style="fill:none;stroke-width:1;stroke-linecap:butt;stroke-linejoin:miter;stroke:rgb(0%,0%,0%);stroke-opacity:1;stroke-miterlimit:10;" d="M 303.786133 -484.129883 L 303.786133 -482.530273 M 303.188477 -482.530273 L 303.786133 -484.129883 L 304.386719 -482.530273 " transform="matrix(0,1.333333,-1.333333,0,-454.666667,-325.333333)"/>
<path style="fill:none;stroke-width:1;stroke-linecap:round;stroke-linejoin:round;stroke:rgb(0%,0%,0%);stroke-opacity:1;stroke-miterlimit:10;" d="M 283.600586 -506.043945 L 323.96875 -506.043945 L 323.96875 -498.3125 L 283.600586 -498.3125 Z M 283.600586 -506.043945 " transform="matrix(0,1.333333,-1.333333,0,-454.666667,-325.333333)"/>
<path style="fill:none;stroke-width:1;stroke-linecap:round;stroke-linejoin:round;stroke:rgb(0%,0%,0%);stroke-opacity:1;stroke-miterlimit:10;" d="M 303.786133 -493.756836 L 303.786133 -494.811523 " transform="matrix(0,1.333333,-1.333333,0,-454.666667,-325.333333)"/>
<path style="fill:none;stroke-width:1;stroke-linecap:butt;stroke-linejoin:miter;stroke:rgb(0%,0%,0%);stroke-opacity:1;stroke-miterlimit:10;" d="M 303.786133 -496.411133 L 303.786133 -494.811523 M 303.188477 -494.811523 L 303.786133 -496.411133 L 304.386719 -494.811523 " transform="matrix(0,1.333333,-1.333333,0,-454.666667,-325.333333)"/>
<path style="fill:none;stroke-width:1;stroke-linecap:round;stroke-linejoin:round;stroke:rgb(0%,0%,0%);stroke-opacity:1;stroke-dasharray:4,4;stroke-miterlimit:10;" d="M 278.579102 -703.460938 L 328.351562 -703.460938 L 328.351562 -636.807617 L 278.579102 -636.807617 Z M 278.579102 -703.460938 " transform="matrix(0,1.333333,-1.333333,0,-454.666667,-325.333333)"/>
<path style=" stroke:none;fill-rule:nonzero;fill:rgb(69.803923%,85.09804%,100%);fill-opacity:1;" d="M 400.96875 52.589844 L 400.96875 106.410156 L 411.277344 106.410156 L 411.277344 52.589844 Z M 400.96875 52.589844 "/>
<path style="fill:none;stroke-width:1;stroke-linecap:round;stroke-linejoin:round;stroke:rgb(0%,0%,0%);stroke-opacity:1;stroke-miterlimit:10;" d="M 283.442383 -649.458008 L 323.807617 -649.458008 L 323.807617 -641.726562 L 283.442383 -641.726562 Z M 283.442383 -649.458008 " transform="matrix(0,1.333333,-1.333333,0,-454.666667,-325.333333)"/>
<path style="fill:none;stroke-width:1;stroke-linecap:round;stroke-linejoin:round;stroke:rgb(0%,0%,0%);stroke-opacity:1;stroke-miterlimit:10;" d="M 303.625 -629.421875 L 303.625 -638.225586 " transform="matrix(0,1.333333,-1.333333,0,-454.666667,-325.333333)"/>
<path style="fill:none;stroke-width:1;stroke-linecap:butt;stroke-linejoin:miter;stroke:rgb(0%,0%,0%);stroke-opacity:1;stroke-miterlimit:10;" d="M 303.625 -639.828125 L 303.625 -638.225586 M 303.024414 -638.225586 L 303.625 -639.828125 L 304.225586 -638.225586 " transform="matrix(0,1.333333,-1.333333,0,-454.666667,-325.333333)"/>
<path style="fill-rule:nonzero;fill:rgb(40.000001%,74.901962%,100%);fill-opacity:1;stroke-width:1;stroke-linecap:round;stroke-linejoin:round;stroke:rgb(0%,0%,0%);stroke-opacity:1;stroke-miterlimit:10;" d="M 305.514648 -712.833008 C 306.645508 -711.699219 306.645508 -709.862305 305.514648 -708.731445 C 304.383789 -707.600586 302.546875 -707.600586 301.413086 -708.731445 C 300.282227 -709.862305 300.282227 -711.699219 301.413086 -712.833008 C 302.546875 -713.963867 304.383789 -713.963867 305.514648 -712.833008 " transform="matrix(0,1.333333,-1.333333,0,-454.666667,-325.333333)"/>
<path style=" stroke:none;fill-rule:nonzero;fill:rgb(0%,0%,0%);fill-opacity:1;" d="M 491.257812 79.195312 L 492.570312 79.195312 L 492.570312 77.902344 L 493.109375 77.902344 L 493.109375 79.195312 L 494.402344 79.195312 L 494.402344 79.757812 L 493.109375 79.757812 L 493.109375 81.046875 L 492.570312 81.046875 L 492.570312 79.757812 L 491.257812 79.757812 Z M 491.257812 79.195312 "/>
<path style="fill:none;stroke-width:1;stroke-linecap:round;stroke-linejoin:round;stroke:rgb(0%,0%,0%);stroke-opacity:1;stroke-miterlimit:10;" d="M 283.442383 -661.739258 L 323.807617 -661.739258 L 323.807617 -654.007812 L 283.442383 -654.007812 Z M 283.442383 -661.739258 " transform="matrix(0,1.333333,-1.333333,0,-454.666667,-325.333333)"/>
<path style=" stroke:none;fill-rule:nonzero;fill:rgb(40.000001%,74.901962%,100%);fill-opacity:1;" d="M 502.808594 52.589844 L 502.808594 106.410156 L 513.113281 106.410156 L 513.113281 52.589844 Z M 502.808594 52.589844 "/>
<path style="fill:none;stroke-width:1;stroke-linecap:round;stroke-linejoin:round;stroke:rgb(0%,0%,0%);stroke-opacity:1;stroke-miterlimit:10;" d="M 283.442383 -725.834961 L 323.807617 -725.834961 L 323.807617 -718.106445 L 283.442383 -718.106445 Z M 283.442383 -725.834961 " transform="matrix(0,1.333333,-1.333333,0,-454.666667,-325.333333)"/>
<path style=" stroke:none;fill-rule:nonzero;fill:rgb(40.000001%,74.901962%,100%);fill-opacity:1;" d="M 433.722656 52.589844 L 433.722656 106.410156 L 444.027344 106.410156 L 444.027344 52.589844 Z M 433.722656 52.589844 "/>
<path style="fill:none;stroke-width:1;stroke-linecap:round;stroke-linejoin:round;stroke:rgb(0%,0%,0%);stroke-opacity:1;stroke-miterlimit:10;" d="M 283.442383 -674.020508 L 323.807617 -674.020508 L 323.807617 -666.291992 L 283.442383 -666.291992 Z M 283.442383 -674.020508 " transform="matrix(0,1.333333,-1.333333,0,-454.666667,-325.333333)"/>
<path style="fill:none;stroke-width:1;stroke-linecap:round;stroke-linejoin:round;stroke:rgb(0%,0%,0%);stroke-opacity:1;stroke-miterlimit:10;" d="M 303.625 -649.458008 L 303.625 -650.506836 " transform="matrix(0,1.333333,-1.333333,0,-454.666667,-325.333333)"/>
<path style="fill:none;stroke-width:1;stroke-linecap:butt;stroke-linejoin:miter;stroke:rgb(0%,0%,0%);stroke-opacity:1;stroke-miterlimit:10;" d="M 303.625 -652.109375 L 303.625 -650.506836 M 303.024414 -650.506836 L 303.625 -652.109375 L 304.225586 -650.506836 " transform="matrix(0,1.333333,-1.333333,0,-454.666667,-325.333333)"/>
<path style="fill:none;stroke-width:1;stroke-linecap:round;stroke-linejoin:round;stroke:rgb(0%,0%,0%);stroke-opacity:1;stroke-miterlimit:10;" d="M 303.625 -661.739258 L 303.625 -662.793945 " transform="matrix(0,1.333333,-1.333333,0,-454.666667,-325.333333)"/>
<path style="fill:none;stroke-width:1;stroke-linecap:butt;stroke-linejoin:miter;stroke:rgb(0%,0%,0%);stroke-opacity:1;stroke-miterlimit:10;" d="M 303.625 -664.390625 L 303.625 -662.793945 M 303.024414 -662.793945 L 303.625 -664.390625 L 304.225586 -662.793945 " transform="matrix(0,1.333333,-1.333333,0,-454.666667,-325.333333)"/>
<path style="fill:none;stroke-width:1;stroke-linecap:round;stroke-linejoin:round;stroke:rgb(0%,0%,0%);stroke-opacity:1;stroke-miterlimit:10;" d="M 303.586914 -699.573242 L 303.53125 -704.383789 " transform="matrix(0,1.333333,-1.333333,0,-454.666667,-325.333333)"/>
<path style="fill:none;stroke-width:1;stroke-linecap:butt;stroke-linejoin:miter;stroke:rgb(0%,0%,0%);stroke-opacity:1;stroke-miterlimit:10;" d="M 303.516602 -705.983398 L 303.53125 -704.383789 M 302.933594 -704.37793 L 303.516602 -705.983398 L 304.131836 -704.389648 " transform="matrix(0,1.333333,-1.333333,0,-454.666667,-325.333333)"/>
<path style="fill:none;stroke-width:1;stroke-linecap:round;stroke-linejoin:round;stroke:rgb(0%,0%,0%);stroke-opacity:1;stroke-miterlimit:10;" d="M 303.507812 -713.679688 L 303.519531 -714.605469 " transform="matrix(0,1.333333,-1.333333,0,-454.666667,-325.333333)"/>
<path style="fill:none;stroke-width:1;stroke-linecap:butt;stroke-linejoin:miter;stroke:rgb(0%,0%,0%);stroke-opacity:1;stroke-miterlimit:10;" d="M 303.542969 -716.202148 L 303.519531 -714.605469 M 302.918945 -714.614258 L 303.542969 -716.202148 L 304.120117 -714.59668 " transform="matrix(0,1.333333,-1.333333,0,-454.666667,-325.333333)"/>
<path style="fill:none;stroke-width:1;stroke-linecap:round;stroke-linejoin:round;stroke:rgb(0%,0%,0%);stroke-opacity:1;stroke-miterlimit:10;" d="M 303.625 -633.333008 L 307.914062 -633.333008 C 307.916992 -633.333008 307.922852 -633.333008 307.925781 -633.333008 L 332.016602 -633.535156 C 332.722656 -633.538086 333.293945 -634.112305 333.293945 -634.821289 L 333.504883 -707.023438 C 333.504883 -707.023438 333.504883 -707.023438 333.504883 -707.026367 L 333.504883 -709.493164 C 333.504883 -710.208008 332.924805 -710.782227 332.21582 -710.782227 L 309.862305 -710.782227 " transform="matrix(0,1.333333,-1.333333,0,-454.666667,-325.333333)"/>
<path style="fill:none;stroke-width:1;stroke-linecap:butt;stroke-linejoin:miter;stroke:rgb(0%,0%,0%);stroke-opacity:1;stroke-miterlimit:10;" d="M 308.262695 -710.782227 L 309.862305 -710.782227 M 309.862305 -710.18457 L 308.262695 -710.782227 L 309.862305 -711.382812 " transform="matrix(0,1.333333,-1.333333,0,-454.666667,-325.333333)"/>
<path style=" stroke:none;fill-rule:nonzero;fill:rgb(69.803923%,85.09804%,100%);fill-opacity:1;" d="M 451.417969 52.589844 L 451.417969 106.410156 L 461.722656 106.410156 L 461.722656 52.589844 Z M 451.417969 52.589844 "/>
<path style="fill:none;stroke-width:1;stroke-linecap:round;stroke-linejoin:round;stroke:rgb(0%,0%,0%);stroke-opacity:1;stroke-miterlimit:10;" d="M 283.442383 -687.291992 L 323.807617 -687.291992 L 323.807617 -679.563477 L 283.442383 -679.563477 Z M 283.442383 -687.291992 " transform="matrix(0,1.333333,-1.333333,0,-454.666667,-325.333333)"/>
<path style="fill:none;stroke-width:1;stroke-linecap:round;stroke-linejoin:round;stroke:rgb(0%,0%,0%);stroke-opacity:1;stroke-miterlimit:10;" d="M 303.625 -674.020508 L 303.625 -676.0625 " transform="matrix(0,1.333333,-1.333333,0,-454.666667,-325.333333)"/>
<path style="fill:none;stroke-width:1;stroke-linecap:butt;stroke-linejoin:miter;stroke:rgb(0%,0%,0%);stroke-opacity:1;stroke-miterlimit:10;" d="M 303.625 -677.65918 L 303.625 -676.0625 M 303.024414 -676.0625 L 303.625 -677.65918 L 304.225586 -676.0625 " transform="matrix(0,1.333333,-1.333333,0,-454.666667,-325.333333)"/>
<path style="fill:none;stroke-width:1;stroke-linecap:round;stroke-linejoin:round;stroke:rgb(0%,0%,0%);stroke-opacity:1;stroke-miterlimit:10;" d="M 283.442383 -699.573242 L 323.807617 -699.573242 L 323.807617 -691.844727 L 283.442383 -691.844727 Z M 283.442383 -699.573242 " transform="matrix(0,1.333333,-1.333333,0,-454.666667,-325.333333)"/>
<path style="fill:none;stroke-width:1;stroke-linecap:round;stroke-linejoin:round;stroke:rgb(0%,0%,0%);stroke-opacity:1;stroke-miterlimit:10;" d="M 303.625 -687.291992 L 303.625 -688.34375 " transform="matrix(0,1.333333,-1.333333,0,-454.666667,-325.333333)"/>
<path style="fill:none;stroke-width:1;stroke-linecap:butt;stroke-linejoin:miter;stroke:rgb(0%,0%,0%);stroke-opacity:1;stroke-miterlimit:10;" d="M 303.625 -689.94043 L 303.625 -688.34375 M 303.024414 -688.34375 L 303.625 -689.94043 L 304.225586 -688.34375 " transform="matrix(0,1.333333,-1.333333,0,-454.666667,-325.333333)"/>
<path style=" stroke:none;fill-rule:nonzero;fill:rgb(69.803923%,85.09804%,100%);fill-opacity:1;" d="M 1.40625 17.046875 L 1.40625 142.378906 L 25.40625 142.378906 L 25.40625 17.046875 Z M 1.40625 17.046875 "/>
<path style="fill:none;stroke-width:1;stroke-linecap:round;stroke-linejoin:round;stroke:rgb(0%,0%,0%);stroke-opacity:1;stroke-miterlimit:10;" d="M 256.785156 -360.054688 L 350.78418 -360.054688 L 350.78418 -342.054688 L 256.785156 -342.054688 Z M 256.785156 -360.054688 " transform="matrix(0,1.333333,-1.333333,0,-454.666667,-325.333333)"/>
<path style=" stroke:none;fill-rule:nonzero;fill:rgb(0%,0%,0%);fill-opacity:1;" d="M 17.0625 51.261719 L 18.082031 51.261719 L 18.082031 56.824219 L 17.269531 56.824219 C 16.6875 56.285156 15.90625 55.742188 14.9375 55.199219 C 13.976562 54.660156 12.984375 54.242188 11.957031 53.949219 C 11.25 53.742188 10.460938 53.605469 9.601562 53.554688 L 9.601562 52.472656 C 10.28125 52.480469 11.09375 52.617188 12.039062 52.867188 C 13 53.117188 13.921875 53.476562 14.8125 53.949219 C 15.695312 54.433594 16.445312 54.941406 17.0625 55.472656 Z M 17.0625 51.261719 "/>
<g clip-path="url(#clip1)" clip-rule="nonzero">
<path style=" stroke:none;fill-rule:nonzero;fill:rgb(0%,0%,0%);fill-opacity:1;" d="M 12.683594 64.191406 L 15.058594 66.566406 C 15.203125 66.691406 15.226562 66.730469 15.308594 66.730469 C 15.453125 66.730469 15.558594 66.605469 15.558594 66.480469 C 15.558594 66.398438 15.515625 66.335938 15.390625 66.230469 L 13.015625 63.835938 L 15.390625 61.441406 C 15.539062 61.316406 15.558594 61.273438 15.558594 61.191406 C 15.558594 61.066406 15.453125 60.941406 15.308594 60.941406 C 15.226562 60.941406 15.164062 61.003906 15.058594 61.105469 L 12.683594 63.480469 L 10.289062 61.105469 C 10.183594 60.980469 10.101562 60.941406 10.039062 60.941406 C 9.890625 60.941406 9.789062 61.066406 9.789062 61.191406 C 9.789062 61.273438 9.808594 61.316406 9.953125 61.441406 L 12.328125 63.835938 L 9.953125 66.230469 C 9.828125 66.335938 9.789062 66.417969 9.789062 66.480469 C 9.789062 66.628906 9.890625 66.730469 10.039062 66.730469 C 10.121094 66.730469 10.140625 66.691406 10.289062 66.566406 Z M 12.683594 64.191406 "/>
<path style=" stroke:none;fill-rule:nonzero;fill:rgb(0%,0%,0%);fill-opacity:1;" d="M 12.683594 64.191406 L 15.058594 66.566406 C 15.203125 66.691406 15.226562 66.730469 15.308594 66.730469 C 15.453125 66.730469 15.558594 66.605469 15.558594 66.480469 C 15.558594 66.398438 15.515625 66.335938 15.390625 66.230469 L 13.015625 63.835938 L 15.390625 61.441406 C 15.539062 61.316406 15.558594 61.273438 15.558594 61.191406 C 15.558594 61.066406 15.453125 60.941406 15.308594 60.941406 C 15.226562 60.941406 15.164062 61.003906 15.058594 61.105469 L 12.683594 63.480469 L 10.289062 61.105469 C 10.183594 60.980469 10.101562 60.941406 10.039062 60.941406 C 9.890625 60.941406 9.789062 61.066406 9.789062 61.191406 C 9.789062 61.273438 9.808594 61.316406 9.953125 61.441406 L 12.328125 63.835938 L 9.953125 66.230469 C 9.828125 66.335938 9.789062 66.417969 9.789062 66.480469 C 9.789062 66.628906 9.890625 66.730469 10.039062 66.730469 C 10.121094 66.730469 10.140625 66.691406 10.289062 66.566406 Z M 12.683594 64.191406 "/>
</g>
<path style=" stroke:none;fill-rule:nonzero;fill:rgb(0%,0%,0%);fill-opacity:1;" d="M 17.0625 71.269531 L 18.082031 71.269531 L 18.082031 76.832031 L 17.269531 76.832031 C 16.6875 76.292969 15.90625 75.75 14.9375 75.207031 C 13.976562 74.667969 12.984375 74.25 11.957031 73.957031 C 11.25 73.75 10.460938 73.613281 9.601562 73.5625 L 9.601562 72.480469 C 10.28125 72.488281 11.09375 72.625 12.039062 72.875 C 13 73.125 13.921875 73.484375 14.8125 73.957031 C 15.695312 74.441406 16.445312 74.949219 17.0625 75.480469 Z M 17.0625 71.269531 "/>
<path style=" stroke:none;fill-rule:nonzero;fill:rgb(0%,0%,0%);fill-opacity:1;" d="M 12.625 87.773438 L 12.332031 88.898438 C 11.398438 88.660156 10.6875 88.230469 10.1875 87.605469 C 9.695312 86.992188 9.457031 86.238281 9.457031 85.335938 C 9.457031 84.417969 9.644531 83.667969 10.019531 83.085938 C 10.394531 82.503906 10.9375 82.054688 11.644531 81.753906 C 12.363281 81.460938 13.132812 81.316406 13.957031 81.316406 C 14.859375 81.316406 15.644531 81.480469 16.3125 81.816406 C 16.976562 82.160156 17.476562 82.648438 17.8125 83.273438 C 18.15625 83.910156 18.332031 84.605469 18.332031 85.355469 C 18.332031 86.214844 18.109375 86.941406 17.664062 87.523438 C 17.234375 88.117188 16.625 88.527344 15.832031 88.753906 L 15.582031 87.628906 C 16.207031 87.429688 16.65625 87.148438 16.9375 86.773438 C 17.226562 86.398438 17.375 85.917969 17.375 85.335938 C 17.375 84.679688 17.210938 84.132812 16.894531 83.691406 C 16.570312 83.242188 16.144531 82.929688 15.601562 82.753906 C 15.070312 82.570312 14.53125 82.480469 13.976562 82.480469 C 13.238281 82.480469 12.59375 82.585938 12.039062 82.792969 C 11.5 83.011719 11.09375 83.347656 10.832031 83.792969 C 10.566406 84.238281 10.4375 84.722656 10.4375 85.253906 C 10.4375 85.886719 10.613281 86.425781 10.976562 86.855469 C 11.351562 87.300781 11.898438 87.605469 12.625 87.773438 Z M 12.625 87.773438 "/>
<path style=" stroke:none;fill-rule:nonzero;fill:rgb(0%,0%,0%);fill-opacity:1;" d="M 12.707031 89.769531 C 13.859375 89.769531 14.710938 90.085938 15.269531 90.726562 C 15.726562 91.269531 15.957031 91.921875 15.957031 92.6875 C 15.957031 93.546875 15.675781 94.25 15.125 94.789062 C 14.566406 95.332031 13.796875 95.601562 12.8125 95.601562 C 12.003906 95.601562 11.375 95.476562 10.914062 95.226562 C 10.457031 94.988281 10.09375 94.644531 9.832031 94.1875 C 9.582031 93.726562 9.457031 93.226562 9.457031 92.6875 C 9.457031 91.8125 9.734375 91.101562 10.289062 90.5625 C 10.859375 90.03125 11.664062 89.769531 12.707031 89.769531 Z M 12.707031 90.851562 C 11.914062 90.851562 11.316406 91.023438 10.914062 91.375 C 10.523438 91.71875 10.332031 92.15625 10.332031 92.6875 C 10.332031 93.210938 10.523438 93.648438 10.914062 94 C 11.316406 94.34375 11.925781 94.519531 12.75 94.519531 C 13.507812 94.519531 14.09375 94.34375 14.5 94 C 14.898438 93.648438 15.101562 93.210938 15.101562 92.6875 C 15.101562 92.15625 14.898438 91.71875 14.5 91.375 C 14.109375 91.023438 13.507812 90.851562 12.707031 90.851562 Z M 12.707031 90.851562 "/>
<path style=" stroke:none;fill-rule:nonzero;fill:rgb(0%,0%,0%);fill-opacity:1;" d="M 9.601562 96.835938 L 15.832031 96.835938 L 15.832031 97.792969 L 14.9375 97.792969 C 15.613281 98.234375 15.957031 98.898438 15.957031 99.773438 C 15.957031 100.148438 15.882812 100.484375 15.75 100.792969 C 15.625 101.109375 15.445312 101.34375 15.226562 101.5 C 15.019531 101.652344 14.757812 101.761719 14.457031 101.835938 C 14.257812 101.875 13.921875 101.898438 13.4375 101.898438 L 9.601562 101.898438 L 9.601562 100.835938 L 13.394531 100.835938 C 13.820312 100.835938 14.144531 100.792969 14.351562 100.710938 C 14.5625 100.625 14.726562 100.480469 14.851562 100.273438 C 14.988281 100.0625 15.0625 99.820312 15.0625 99.542969 C 15.0625 99.09375 14.914062 98.710938 14.625 98.375 C 14.34375 98.054688 13.800781 97.898438 13 97.898438 L 9.601562 97.898438 Z M 9.601562 96.835938 "/>
<path style=" stroke:none;fill-rule:nonzero;fill:rgb(0%,0%,0%);fill-opacity:1;" d="M 9.601562 105.234375 L 15.832031 102.859375 L 15.832031 103.984375 L 12.101562 105.316406 C 11.695312 105.453125 11.28125 105.585938 10.851562 105.710938 C 11.171875 105.804688 11.5625 105.941406 12.019531 106.109375 L 15.832031 107.484375 L 15.832031 108.566406 L 9.601562 106.210938 Z M 9.601562 105.234375 "/>
<path style="fill:none;stroke-width:1;stroke-linecap:round;stroke-linejoin:round;stroke:rgb(0%,0%,0%);stroke-opacity:1;stroke-miterlimit:10;" d="M 256.785156 -388.657227 L 350.78418 -388.657227 L 350.78418 -370.657227 L 256.785156 -370.657227 Z M 256.785156 -388.657227 " transform="matrix(0,1.333333,-1.333333,0,-454.666667,-325.333333)"/>
<path style=" stroke:none;fill-rule:nonzero;fill:rgb(0%,0%,0%);fill-opacity:1;" d="M 47.738281 49.910156 L 56.320312 49.910156 L 56.320312 53.140625 C 56.320312 53.789062 56.226562 54.3125 56.050781 54.703125 C 55.882812 55.101562 55.617188 55.414062 55.257812 55.640625 C 54.894531 55.875 54.519531 55.992188 54.132812 55.992188 C 53.757812 55.992188 53.410156 55.890625 53.089844 55.679688 C 52.769531 55.484375 52.507812 55.1875 52.300781 54.785156 C 52.144531 55.296875 51.886719 55.691406 51.527344 55.972656 C 51.164062 56.265625 50.738281 56.410156 50.238281 56.410156 C 49.832031 56.410156 49.457031 56.316406 49.113281 56.140625 C 48.761719 55.972656 48.492188 55.765625 48.300781 55.515625 C 48.117188 55.265625 47.976562 54.953125 47.882812 54.578125 C 47.785156 54.203125 47.738281 53.734375 47.738281 53.179688 Z M 52.714844 51.054688 L 52.714844 52.910156 C 52.714844 53.410156 52.746094 53.769531 52.820312 53.992188 C 52.902344 54.285156 53.039062 54.5 53.238281 54.640625 C 53.445312 54.789062 53.695312 54.867188 53.988281 54.867188 C 54.277344 54.867188 54.527344 54.796875 54.738281 54.660156 C 54.957031 54.519531 55.113281 54.328125 55.195312 54.078125 C 55.277344 53.828125 55.320312 53.390625 55.320312 52.765625 L 55.320312 51.054688 Z M 48.757812 51.054688 L 48.757812 53.179688 C 48.757812 53.554688 48.769531 53.816406 48.800781 53.972656 C 48.839844 54.222656 48.914062 54.4375 49.027344 54.617188 C 49.136719 54.796875 49.300781 54.941406 49.507812 55.054688 C 49.714844 55.164062 49.957031 55.222656 50.238281 55.222656 C 50.554688 55.222656 50.832031 55.140625 51.070312 54.972656 C 51.304688 54.804688 51.464844 54.578125 51.550781 54.285156 C 51.644531 53.992188 51.695312 53.578125 51.695312 53.035156 L 51.695312 51.054688 Z M 48.757812 51.054688 "/>
<path style=" stroke:none;fill-rule:nonzero;fill:rgb(0%,0%,0%);fill-opacity:1;" d="M 48.507812 61.894531 C 48.175781 61.503906 47.933594 61.128906 47.800781 60.769531 C 47.664062 60.402344 47.589844 60.019531 47.589844 59.601562 C 47.589844 58.917969 47.757812 58.394531 48.089844 58.019531 C 48.425781 57.652344 48.851562 57.476562 49.382812 57.476562 C 49.683594 57.476562 49.964844 57.542969 50.214844 57.683594 C 50.464844 57.820312 50.664062 58.003906 50.820312 58.226562 C 50.972656 58.445312 51.089844 58.695312 51.175781 58.976562 C 51.214844 59.183594 51.261719 59.496094 51.320312 59.914062 C 51.414062 60.773438 51.539062 61.402344 51.695312 61.808594 C 51.832031 61.808594 51.925781 61.808594 51.964844 61.808594 C 52.394531 61.808594 52.695312 61.710938 52.863281 61.519531 C 53.113281 61.238281 53.238281 60.835938 53.238281 60.308594 C 53.238281 59.808594 53.144531 59.441406 52.964844 59.207031 C 52.800781 58.964844 52.492188 58.792969 52.050781 58.683594 L 52.175781 57.664062 C 52.617188 57.746094 52.972656 57.894531 53.238281 58.101562 C 53.511719 58.320312 53.722656 58.632812 53.863281 59.039062 C 54.011719 59.457031 54.089844 59.925781 54.089844 60.457031 C 54.089844 60.996094 54.027344 61.425781 53.902344 61.746094 C 53.777344 62.082031 53.617188 62.320312 53.425781 62.476562 C 53.242188 62.644531 53.007812 62.753906 52.714844 62.808594 C 52.535156 62.851562 52.214844 62.871094 51.757812 62.871094 L 50.339844 62.871094 C 49.367188 62.871094 48.746094 62.894531 48.488281 62.933594 C 48.222656 62.976562 47.972656 63.066406 47.738281 63.207031 L 47.738281 62.101562 C 47.957031 61.988281 48.214844 61.917969 48.507812 61.894531 Z M 50.863281 61.808594 C 50.707031 61.417969 50.574219 60.839844 50.464844 60.082031 C 50.394531 59.648438 50.320312 59.339844 50.238281 59.164062 C 50.164062 58.980469 50.054688 58.839844 49.902344 58.746094 C 49.746094 58.648438 49.582031 58.601562 49.402344 58.601562 C 49.121094 58.601562 48.886719 58.707031 48.695312 58.914062 C 48.511719 59.121094 48.425781 59.433594 48.425781 59.851562 C 48.425781 60.253906 48.511719 60.613281 48.695312 60.933594 C 48.871094 61.253906 49.117188 61.488281 49.425781 61.644531 C 49.660156 61.753906 50.007812 61.808594 50.464844 61.808594 Z M 50.863281 61.808594 "/>
<path style=" stroke:none;fill-rule:nonzero;fill:rgb(0%,0%,0%);fill-opacity:1;" d="M 48.675781 66.816406 L 47.757812 66.964844 C 47.691406 66.65625 47.652344 66.390625 47.652344 66.171875 C 47.652344 65.78125 47.714844 65.484375 47.839844 65.277344 C 47.964844 65.066406 48.121094 64.910156 48.320312 64.816406 C 48.511719 64.734375 48.925781 64.691406 49.550781 64.691406 L 53.132812 64.691406 L 53.132812 63.921875 L 53.964844 63.921875 L 53.964844 64.691406 L 55.507812 64.691406 L 56.132812 65.753906 L 53.964844 65.753906 L 53.964844 66.816406 L 53.132812 66.816406 L 53.132812 65.753906 L 49.507812 65.753906 C 49.199219 65.753906 49.007812 65.765625 48.925781 65.796875 C 48.839844 65.839844 48.769531 65.902344 48.714844 65.984375 C 48.660156 66.066406 48.632812 66.183594 48.632812 66.339844 C 48.632812 66.464844 48.644531 66.621094 48.675781 66.816406 Z M 48.675781 66.816406 "/>
<path style=" stroke:none;fill-rule:nonzero;fill:rgb(0%,0%,0%);fill-opacity:1;" d="M 50.007812 71.902344 L 49.882812 72.941406 C 49.160156 72.828125 48.597656 72.535156 48.195312 72.066406 C 47.789062 71.59375 47.589844 71.015625 47.589844 70.339844 C 47.589844 69.488281 47.867188 68.808594 48.425781 68.296875 C 48.976562 67.78125 49.777344 67.527344 50.820312 67.527344 C 51.496094 67.527344 52.089844 67.636719 52.589844 67.859375 C 53.089844 68.078125 53.464844 68.410156 53.714844 68.859375 C 53.964844 69.316406 54.089844 69.816406 54.089844 70.359375 C 54.089844 71.027344 53.914062 71.574219 53.570312 72.003906 C 53.238281 72.433594 52.757812 72.714844 52.132812 72.839844 L 51.964844 71.816406 C 52.382812 71.71875 52.695312 71.546875 52.902344 71.296875 C 53.121094 71.046875 53.238281 70.746094 53.238281 70.402344 C 53.238281 69.859375 53.039062 69.421875 52.652344 69.089844 C 52.277344 68.765625 51.679688 68.609375 50.863281 68.609375 C 50.011719 68.609375 49.402344 68.765625 49.027344 69.089844 C 48.652344 69.40625 48.464844 69.824219 48.464844 70.339844 C 48.464844 70.753906 48.589844 71.097656 48.839844 71.378906 C 49.089844 71.65625 49.476562 71.828125 50.007812 71.902344 Z M 50.007812 71.902344 "/>
<path style=" stroke:none;fill-rule:nonzero;fill:rgb(0%,0%,0%);fill-opacity:1;" d="M 47.738281 73.839844 L 56.320312 73.839844 L 56.320312 74.902344 L 53.238281 74.902344 C 53.804688 75.386719 54.089844 76.003906 54.089844 76.753906 C 54.089844 77.214844 53.996094 77.609375 53.820312 77.941406 C 53.636719 78.285156 53.386719 78.53125 53.070312 78.671875 C 52.746094 78.824219 52.285156 78.902344 51.675781 78.902344 L 47.738281 78.902344 L 47.738281 77.859375 L 51.675781 77.859375 C 52.199219 77.859375 52.582031 77.738281 52.820312 77.503906 C 53.070312 77.28125 53.195312 76.964844 53.195312 76.546875 C 53.195312 76.222656 53.113281 75.925781 52.945312 75.652344 C 52.789062 75.371094 52.574219 75.175781 52.300781 75.066406 C 52.019531 74.953125 51.632812 74.902344 51.132812 74.902344 L 47.738281 74.902344 Z M 47.738281 73.839844 "/>
<path style=" stroke:none;fill-rule:nonzero;fill:rgb(0%,0%,0%);fill-opacity:1;" d="M 47.738281 83.847656 L 53.964844 83.847656 L 53.964844 84.804688 L 53.070312 84.804688 C 53.746094 85.25 54.089844 85.910156 54.089844 86.785156 C 54.089844 87.160156 54.019531 87.5 53.882812 87.804688 C 53.757812 88.125 53.582031 88.359375 53.363281 88.515625 C 53.152344 88.664062 52.894531 88.773438 52.589844 88.847656 C 52.394531 88.890625 52.054688 88.910156 51.570312 88.910156 L 47.738281 88.910156 L 47.738281 87.847656 L 51.527344 87.847656 C 51.957031 87.847656 52.277344 87.804688 52.488281 87.722656 C 52.695312 87.640625 52.863281 87.492188 52.988281 87.285156 C 53.121094 87.078125 53.195312 86.832031 53.195312 86.554688 C 53.195312 86.109375 53.050781 85.722656 52.757812 85.390625 C 52.476562 85.066406 51.933594 84.910156 51.132812 84.910156 L 47.738281 84.910156 Z M 47.738281 83.847656 "/>
<path style=" stroke:none;fill-rule:nonzero;fill:rgb(0%,0%,0%);fill-opacity:1;" d="M 50.839844 90.125 C 51.992188 90.125 52.847656 90.445312 53.402344 91.085938 C 53.863281 91.625 54.089844 92.277344 54.089844 93.042969 C 54.089844 93.902344 53.808594 94.605469 53.257812 95.148438 C 52.699219 95.6875 51.929688 95.960938 50.945312 95.960938 C 50.136719 95.960938 49.507812 95.835938 49.050781 95.585938 C 48.589844 95.34375 48.226562 95 47.964844 94.542969 C 47.714844 94.085938 47.589844 93.585938 47.589844 93.042969 C 47.589844 92.167969 47.867188 91.460938 48.425781 90.917969 C 48.992188 90.386719 49.800781 90.125 50.839844 90.125 Z M 50.839844 91.210938 C 50.050781 91.210938 49.449219 91.382812 49.050781 91.730469 C 48.660156 92.074219 48.464844 92.511719 48.464844 93.042969 C 48.464844 93.570312 48.660156 94.007812 49.050781 94.355469 C 49.449219 94.699219 50.058594 94.875 50.882812 94.875 C 51.644531 94.875 52.226562 94.699219 52.632812 94.355469 C 53.035156 94.007812 53.238281 93.570312 53.238281 93.042969 C 53.238281 92.511719 53.035156 92.074219 52.632812 91.730469 C 52.242188 91.382812 51.644531 91.210938 50.839844 91.210938 Z M 50.839844 91.210938 "/>
<path style=" stroke:none;fill-rule:nonzero;fill:rgb(0%,0%,0%);fill-opacity:1;" d="M 47.738281 97.175781 L 53.964844 97.175781 L 53.964844 98.132812 L 53.007812 98.132812 C 53.449219 98.367188 53.742188 98.589844 53.882812 98.800781 C 54.019531 99.007812 54.089844 99.238281 54.089844 99.488281 C 54.089844 99.832031 53.976562 100.195312 53.757812 100.570312 L 52.777344 100.195312 C 52.929688 99.945312 53.007812 99.683594 53.007812 99.425781 C 53.007812 99.199219 52.933594 98.992188 52.800781 98.800781 C 52.660156 98.617188 52.464844 98.488281 52.214844 98.402344 C 51.839844 98.289062 51.429688 98.238281 50.988281 98.238281 L 47.738281 98.238281 Z M 47.738281 97.175781 "/>
<path style=" stroke:none;fill-rule:nonzero;fill:rgb(0%,0%,0%);fill-opacity:1;" d="M 47.738281 101.191406 L 53.964844 101.191406 L 53.964844 102.128906 L 53.089844 102.128906 C 53.394531 102.320312 53.636719 102.578125 53.820312 102.898438 C 53.996094 103.234375 54.089844 103.609375 54.089844 104.023438 C 54.089844 104.484375 53.992188 104.859375 53.800781 105.148438 C 53.617188 105.441406 53.351562 105.648438 53.007812 105.773438 C 53.726562 106.273438 54.089844 106.910156 54.089844 107.691406 C 54.089844 108.316406 53.914062 108.796875 53.570312 109.128906 C 53.238281 109.460938 52.714844 109.628906 52.007812 109.628906 L 47.738281 109.628906 L 47.738281 108.566406 L 51.652344 108.566406 C 52.082031 108.566406 52.386719 108.53125 52.570312 108.460938 C 52.746094 108.40625 52.894531 108.285156 53.007812 108.109375 C 53.132812 107.925781 53.195312 107.710938 53.195312 107.460938 C 53.195312 107.03125 53.050781 106.671875 52.757812 106.378906 C 52.464844 106.085938 51.996094 105.941406 51.363281 105.941406 L 47.738281 105.941406 L 47.738281 104.878906 L 51.777344 104.878906 C 52.246094 104.878906 52.601562 104.796875 52.839844 104.628906 C 53.074219 104.460938 53.195312 104.179688 53.195312 103.796875 C 53.195312 103.488281 53.113281 103.210938 52.945312 102.960938 C 52.789062 102.710938 52.558594 102.53125 52.257812 102.421875 C 51.964844 102.304688 51.535156 102.253906 50.964844 102.253906 L 47.738281 102.253906 Z M 47.738281 101.191406 "/>
<path style=" stroke:none;fill-rule:nonzero;fill:rgb(40.000001%,74.901962%,100%);fill-opacity:1;" d="M 77.671875 17.046875 L 77.671875 142.378906 L 101.671875 142.378906 L 101.671875 17.046875 Z M 77.671875 17.046875 "/>
<path style="fill:none;stroke-width:1;stroke-linecap:round;stroke-linejoin:round;stroke:rgb(0%,0%,0%);stroke-opacity:1;stroke-miterlimit:10;" d="M 256.785156 -417.253906 L 350.78418 -417.253906 L 350.78418 -399.253906 L 256.785156 -399.253906 Z M 256.785156 -417.253906 " transform="matrix(0,1.333333,-1.333333,0,-454.666667,-325.333333)"/>
<path style=" stroke:none;fill-rule:nonzero;fill:rgb(0%,0%,0%);fill-opacity:1;" d="M 88.140625 41.863281 L 88.285156 42.925781 C 87.6875 43.050781 87.253906 43.25 86.996094 43.53125 C 86.730469 43.820312 86.597656 44.179688 86.597656 44.613281 C 86.597656 45.097656 86.765625 45.507812 87.097656 45.84375 C 87.441406 46.1875 87.875 46.363281 88.390625 46.363281 C 88.875 46.363281 89.269531 46.203125 89.578125 45.882812 C 89.894531 45.578125 90.058594 45.179688 90.058594 44.695312 C 90.058594 44.488281 90.015625 44.238281 89.933594 43.945312 L 90.871094 44.070312 C 90.855469 44.140625 90.847656 44.195312 90.847656 44.238281 C 90.847656 44.679688 90.964844 45.082031 91.203125 45.445312 C 91.4375 45.804688 91.796875 45.988281 92.285156 45.988281 C 92.671875 45.988281 92.996094 45.851562 93.246094 45.59375 C 93.496094 45.328125 93.621094 44.988281 93.621094 44.570312 C 93.621094 44.164062 93.484375 43.828125 93.222656 43.550781 C 92.972656 43.285156 92.589844 43.113281 92.078125 43.03125 L 92.265625 41.96875 C 92.972656 42.101562 93.519531 42.394531 93.910156 42.84375 C 94.296875 43.300781 94.496094 43.867188 94.496094 44.550781 C 94.496094 45.019531 94.390625 45.453125 94.183594 45.84375 C 93.984375 46.242188 93.714844 46.550781 93.371094 46.757812 C 93.019531 46.96875 92.652344 47.070312 92.265625 47.070312 C 91.890625 47.070312 91.546875 46.96875 91.246094 46.757812 C 90.9375 46.5625 90.691406 46.269531 90.515625 45.882812 C 90.402344 46.394531 90.160156 46.789062 89.785156 47.070312 C 89.421875 47.347656 88.964844 47.488281 88.410156 47.488281 C 87.660156 47.488281 87.019531 47.207031 86.496094 46.65625 C 85.980469 46.113281 85.722656 45.425781 85.722656 44.59375 C 85.722656 43.84375 85.941406 43.21875 86.390625 42.71875 C 86.832031 42.21875 87.417969 41.929688 88.140625 41.863281 Z M 88.140625 41.863281 "/>
<g clip-path="url(#clip2)" clip-rule="nonzero">
<path style=" stroke:none;fill-rule:nonzero;fill:rgb(0%,0%,0%);fill-opacity:1;" d="M 89.21875 54.855469 L 91.59375 57.230469 C 91.742188 57.355469 91.761719 57.394531 91.84375 57.394531 C 91.992188 57.394531 92.09375 57.269531 92.09375 57.144531 C 92.09375 57.0625 92.054688 57 91.929688 56.894531 L 89.554688 54.5 L 91.929688 52.105469 C 92.074219 51.980469 92.09375 51.9375 92.09375 51.855469 C 92.09375 51.730469 91.992188 51.605469 91.84375 51.605469 C 91.761719 51.605469 91.699219 51.667969 91.59375 51.769531 L 89.21875 54.144531 L 86.824219 51.769531 C 86.71875 51.644531 86.636719 51.605469 86.574219 51.605469 C 86.429688 51.605469 86.324219 51.730469 86.324219 51.855469 C 86.324219 51.9375 86.34375 51.980469 86.492188 52.105469 L 88.867188 54.5 L 86.492188 56.894531 C 86.367188 57 86.324219 57.082031 86.324219 57.144531 C 86.324219 57.292969 86.429688 57.394531 86.574219 57.394531 C 86.65625 57.394531 86.679688 57.355469 86.824219 57.230469 Z M 89.21875 54.855469 "/>
<path style=" stroke:none;fill-rule:nonzero;fill:rgb(0%,0%,0%);fill-opacity:1;" d="M 89.21875 54.855469 L 91.59375 57.230469 C 91.742188 57.355469 91.761719 57.394531 91.84375 57.394531 C 91.992188 57.394531 92.09375 57.269531 92.09375 57.144531 C 92.09375 57.0625 92.054688 57 91.929688 56.894531 L 89.554688 54.5 L 91.929688 52.105469 C 92.074219 51.980469 92.09375 51.9375 92.09375 51.855469 C 92.09375 51.730469 91.992188 51.605469 91.84375 51.605469 C 91.761719 51.605469 91.699219 51.667969 91.59375 51.769531 L 89.21875 54.144531 L 86.824219 51.769531 C 86.71875 51.644531 86.636719 51.605469 86.574219 51.605469 C 86.429688 51.605469 86.324219 51.730469 86.324219 51.855469 C 86.324219 51.9375 86.34375 51.980469 86.492188 52.105469 L 88.867188 54.5 L 86.492188 56.894531 C 86.367188 57 86.324219 57.082031 86.324219 57.144531 C 86.324219 57.292969 86.429688 57.394531 86.574219 57.394531 C 86.65625 57.394531 86.679688 57.355469 86.824219 57.230469 Z M 89.21875 54.855469 "/>
</g>
<path style=" stroke:none;fill-rule:nonzero;fill:rgb(0%,0%,0%);fill-opacity:1;" d="M 88.140625 61.871094 L 88.285156 62.933594 C 87.6875 63.058594 87.253906 63.257812 86.996094 63.539062 C 86.730469 63.828125 86.597656 64.1875 86.597656 64.621094 C 86.597656 65.105469 86.765625 65.515625 87.097656 65.851562 C 87.441406 66.195312 87.875 66.371094 88.390625 66.371094 C 88.875 66.371094 89.269531 66.210938 89.578125 65.890625 C 89.894531 65.585938 90.058594 65.1875 90.058594 64.703125 C 90.058594 64.496094 90.015625 64.246094 89.933594 63.953125 L 90.871094 64.078125 C 90.855469 64.148438 90.847656 64.203125 90.847656 64.246094 C 90.847656 64.6875 90.964844 65.089844 91.203125 65.453125 C 91.4375 65.8125 91.796875 65.996094 92.285156 65.996094 C 92.671875 65.996094 92.996094 65.859375 93.246094 65.601562 C 93.496094 65.335938 93.621094 64.996094 93.621094 64.578125 C 93.621094 64.171875 93.484375 63.835938 93.222656 63.558594 C 92.972656 63.292969 92.589844 63.121094 92.078125 63.039062 L 92.265625 61.976562 C 92.972656 62.109375 93.519531 62.402344 93.910156 62.851562 C 94.296875 63.308594 94.496094 63.875 94.496094 64.558594 C 94.496094 65.027344 94.390625 65.460938 94.183594 65.851562 C 93.984375 66.25 93.714844 66.558594 93.371094 66.765625 C 93.019531 66.976562 92.652344 67.078125 92.265625 67.078125 C 91.890625 67.078125 91.546875 66.976562 91.246094 66.765625 C 90.9375 66.570312 90.691406 66.277344 90.515625 65.890625 C 90.402344 66.402344 90.160156 66.796875 89.785156 67.078125 C 89.421875 67.355469 88.964844 67.496094 88.410156 67.496094 C 87.660156 67.496094 87.019531 67.214844 86.496094 66.664062 C 85.980469 66.121094 85.722656 65.433594 85.722656 64.601562 C 85.722656 63.851562 85.941406 63.226562 86.390625 62.726562 C 86.832031 62.226562 87.417969 61.9375 88.140625 61.871094 Z M 88.140625 61.871094 "/>
<path style=" stroke:none;fill-rule:nonzero;fill:rgb(0%,0%,0%);fill-opacity:1;" d="M 85.871094 72.273438 L 94.453125 72.273438 L 94.453125 73.984375 L 88.371094 76.003906 C 87.8125 76.195312 87.390625 76.335938 87.097656 76.421875 C 87.417969 76.515625 87.875 76.671875 88.472656 76.878906 L 94.453125 78.941406 L 94.453125 80.460938 L 85.871094 80.460938 L 85.871094 79.378906 L 93.058594 79.378906 L 85.871094 76.878906 L 85.871094 75.859375 L 93.183594 73.359375 L 85.871094 73.359375 Z M 85.871094 72.273438 "/>
<path style=" stroke:none;fill-rule:nonzero;fill:rgb(0%,0%,0%);fill-opacity:1;" d="M 86.640625 86.230469 C 86.308594 85.839844 86.066406 85.464844 85.933594 85.105469 C 85.796875 84.738281 85.722656 84.355469 85.722656 83.9375 C 85.722656 83.253906 85.890625 82.730469 86.222656 82.355469 C 86.558594 81.988281 86.984375 81.8125 87.515625 81.8125 C 87.816406 81.8125 88.097656 81.878906 88.347656 82.019531 C 88.597656 82.15625 88.796875 82.339844 88.953125 82.5625 C 89.105469 82.78125 89.222656 83.03125 89.308594 83.3125 C 89.347656 83.519531 89.394531 83.832031 89.453125 84.25 C 89.546875 85.109375 89.671875 85.738281 89.828125 86.144531 C 89.964844 86.144531 90.058594 86.144531 90.097656 86.144531 C 90.527344 86.144531 90.828125 86.046875 90.996094 85.855469 C 91.246094 85.574219 91.371094 85.171875 91.371094 84.644531 C 91.371094 84.144531 91.277344 83.777344 91.097656 83.542969 C 90.933594 83.300781 90.625 83.128906 90.183594 83.019531 L 90.308594 82 C 90.75 82.082031 91.105469 82.230469 91.371094 82.4375 C 91.644531 82.65625 91.855469 82.96875 91.996094 83.375 C 92.144531 83.792969 92.222656 84.261719 92.222656 84.792969 C 92.222656 85.332031 92.160156 85.761719 92.035156 86.082031 C 91.910156 86.417969 91.75 86.65625 91.558594 86.8125 C 91.375 86.980469 91.140625 87.089844 90.847656 87.144531 C 90.667969 87.1875 90.347656 87.207031 89.890625 87.207031 L 88.472656 87.207031 C 87.5 87.207031 86.878906 87.230469 86.621094 87.269531 C 86.355469 87.3125 86.105469 87.402344 85.871094 87.542969 L 85.871094 86.4375 C 86.089844 86.324219 86.347656 86.253906 86.640625 86.230469 Z M 88.996094 86.144531 C 88.839844 85.753906 88.707031 85.175781 88.597656 84.417969 C 88.527344 83.984375 88.453125 83.675781 88.371094 83.5 C 88.296875 83.316406 88.1875 83.175781 88.035156 83.082031 C 87.878906 82.984375 87.714844 82.9375 87.535156 82.9375 C 87.253906 82.9375 87.019531 83.042969 86.828125 83.25 C 86.644531 83.457031 86.558594 83.769531 86.558594 84.1875 C 86.558594 84.589844 86.644531 84.949219 86.828125 85.269531 C 87.003906 85.589844 87.25 85.824219 87.558594 85.980469 C 87.792969 86.089844 88.140625 86.144531 88.597656 86.144531 Z M 88.996094 86.144531 "/>
<path style=" stroke:none;fill-rule:nonzero;fill:rgb(0%,0%,0%);fill-opacity:1;" d="M 85.871094 88.132812 L 89.097656 90.402344 L 92.097656 88.300781 L 92.097656 89.632812 L 90.640625 90.589844 C 90.359375 90.757812 90.125 90.894531 89.933594 91.007812 C 90.191406 91.183594 90.421875 91.347656 90.621094 91.488281 L 92.097656 92.527344 L 92.097656 93.800781 L 89.160156 91.652344 L 85.871094 93.964844 L 85.871094 92.675781 L 87.808594 91.382812 L 88.328125 91.050781 L 85.871094 89.425781 Z M 85.871094 88.132812 "/>
<path style=" stroke:none;fill-rule:nonzero;fill:rgb(0%,0%,0%);fill-opacity:1;" d="M 85.871094 94.964844 L 94.453125 94.964844 L 94.453125 98.214844 C 94.453125 98.785156 94.421875 99.222656 94.371094 99.527344 C 94.296875 99.945312 94.167969 100.289062 93.972656 100.570312 C 93.777344 100.863281 93.5 101.089844 93.140625 101.257812 C 92.792969 101.433594 92.402344 101.527344 91.972656 101.527344 C 91.234375 101.527344 90.621094 101.289062 90.121094 100.820312 C 89.621094 100.363281 89.371094 99.527344 89.371094 98.320312 L 89.371094 96.113281 L 85.871094 96.113281 Z M 90.371094 96.113281 L 90.371094 98.339844 C 90.371094 99.058594 90.503906 99.574219 90.785156 99.882812 C 91.0625 100.199219 91.441406 100.363281 91.933594 100.363281 C 92.292969 100.363281 92.597656 100.269531 92.847656 100.089844 C 93.109375 99.910156 93.285156 99.664062 93.371094 99.363281 C 93.421875 99.179688 93.453125 98.824219 93.453125 98.300781 L 93.453125 96.113281 Z M 90.371094 96.113281 "/>
<path style=" stroke:none;fill-rule:nonzero;fill:rgb(0%,0%,0%);fill-opacity:1;" d="M 88.972656 102.449219 C 90.125 102.449219 90.980469 102.765625 91.535156 103.40625 C 91.996094 103.949219 92.222656 104.601562 92.222656 105.367188 C 92.222656 106.226562 91.941406 106.929688 91.390625 107.46875 C 90.832031 108.011719 90.0625 108.28125 89.078125 108.28125 C 88.269531 108.28125 87.640625 108.15625 87.183594 107.90625 C 86.722656 107.667969 86.359375 107.324219 86.097656 106.867188 C 85.847656 106.40625 85.722656 105.90625 85.722656 105.367188 C 85.722656 104.492188 86 103.78125 86.558594 103.242188 C 87.125 102.710938 87.933594 102.449219 88.972656 102.449219 Z M 88.972656 103.53125 C 88.183594 103.53125 87.582031 103.703125 87.183594 104.054688 C 86.792969 104.398438 86.597656 104.835938 86.597656 105.367188 C 86.597656 105.890625 86.792969 106.328125 87.183594 106.679688 C 87.582031 107.023438 88.191406 107.199219 89.015625 107.199219 C 89.777344 107.199219 90.359375 107.023438 90.765625 106.679688 C 91.167969 106.328125 91.371094 105.890625 91.371094 105.367188 C 91.371094 104.835938 91.167969 104.398438 90.765625 104.054688 C 90.375 103.703125 89.777344 103.53125 88.972656 103.53125 Z M 88.972656 103.53125 "/>
<path style=" stroke:none;fill-rule:nonzero;fill:rgb(0%,0%,0%);fill-opacity:1;" d="M 88.972656 109.125 C 90.125 109.125 90.980469 109.441406 91.535156 110.082031 C 91.996094 110.625 92.222656 111.273438 92.222656 112.039062 C 92.222656 112.898438 91.941406 113.601562 91.390625 114.144531 C 90.832031 114.6875 90.0625 114.957031 89.078125 114.957031 C 88.269531 114.957031 87.640625 114.832031 87.183594 114.582031 C 86.722656 114.34375 86.359375 114 86.097656 113.539062 C 85.847656 113.082031 85.722656 112.582031 85.722656 112.039062 C 85.722656 111.164062 86 110.457031 86.558594 109.914062 C 87.125 109.382812 87.933594 109.125 88.972656 109.125 Z M 88.972656 110.207031 C 88.183594 110.207031 87.582031 110.378906 87.183594 110.726562 C 86.792969 111.070312 86.597656 111.507812 86.597656 112.039062 C 86.597656 112.566406 86.792969 113.003906 87.183594 113.351562 C 87.582031 113.695312 88.191406 113.875 89.015625 113.875 C 89.777344 113.875 90.359375 113.695312 90.765625 113.351562 C 91.167969 113.003906 91.371094 112.566406 91.371094 112.039062 C 91.371094 111.507812 91.167969 111.070312 90.765625 110.726562 C 90.375 110.378906 89.777344 110.207031 88.972656 110.207031 Z M 88.972656 110.207031 "/>
<path style=" stroke:none;fill-rule:nonzero;fill:rgb(0%,0%,0%);fill-opacity:1;" d="M 85.871094 116.171875 L 94.453125 116.171875 L 94.453125 117.214844 L 85.871094 117.214844 Z M 85.871094 116.171875 "/>
<path style="fill:none;stroke-width:1;stroke-linecap:round;stroke-linejoin:round;stroke:rgb(0%,0%,0%);stroke-opacity:1;stroke-miterlimit:10;" d="M 303.786133 -360.054688 L 303.786133 -364.753906 " transform="matrix(0,1.333333,-1.333333,0,-454.666667,-325.333333)"/>
<path style="fill:none;stroke-width:1;stroke-linecap:butt;stroke-linejoin:miter;stroke:rgb(0%,0%,0%);stroke-opacity:1;stroke-miterlimit:10;" d="M 303.786133 -368.75293 L 303.786133 -364.753906 M 302.286133 -364.753906 L 303.786133 -368.75293 L 305.286133 -364.753906 " transform="matrix(0,1.333333,-1.333333,0,-454.666667,-325.333333)"/>
<path style="fill:none;stroke-width:1;stroke-linecap:round;stroke-linejoin:round;stroke:rgb(0%,0%,0%);stroke-opacity:1;stroke-miterlimit:10;" d="M 303.786133 -388.657227 L 303.786133 -393.356445 " transform="matrix(0,1.333333,-1.333333,0,-454.666667,-325.333333)"/>
<path style="fill:none;stroke-width:1;stroke-linecap:butt;stroke-linejoin:miter;stroke:rgb(0%,0%,0%);stroke-opacity:1;stroke-miterlimit:10;" d="M 303.786133 -397.355469 L 303.786133 -393.356445 M 302.286133 -393.356445 L 303.786133 -397.355469 L 305.286133 -393.356445 " transform="matrix(0,1.333333,-1.333333,0,-454.666667,-325.333333)"/>
<path style=" stroke:none;fill-rule:nonzero;fill:rgb(40.000001%,74.901962%,100%);fill-opacity:1;" d="M 528.9375 17.046875 L 528.9375 142.378906 L 552.9375 142.378906 L 552.9375 17.046875 Z M 528.9375 17.046875 "/>
<path style="fill:none;stroke-width:1;stroke-linecap:round;stroke-linejoin:round;stroke:rgb(0%,0%,0%);stroke-opacity:1;stroke-miterlimit:10;" d="M 256.785156 -755.703125 L 350.78418 -755.703125 L 350.78418 -737.703125 L 256.785156 -737.703125 Z M 256.785156 -755.703125 " transform="matrix(0,1.333333,-1.333333,0,-454.666667,-325.333333)"/>
<path style=" stroke:none;fill-rule:nonzero;fill:rgb(0%,0%,0%);fill-opacity:1;" d="M 540.511719 43.734375 L 541.511719 43.734375 L 541.511719 47.378906 L 538.324219 47.378906 C 537.875 46.820312 537.542969 46.242188 537.324219 45.648438 C 537.105469 45.050781 536.988281 44.441406 536.988281 43.816406 C 536.988281 42.984375 537.167969 42.21875 537.53125 41.523438 C 537.890625 40.828125 538.410156 40.304688 539.09375 39.960938 C 539.769531 39.613281 540.535156 39.441406 541.386719 39.441406 C 542.21875 39.441406 542.996094 39.613281 543.71875 39.960938 C 544.453125 40.304688 544.996094 40.804688 545.34375 41.460938 C 545.6875 42.128906 545.863281 42.882812 545.863281 43.734375 C 545.863281 44.359375 545.761719 44.921875 545.550781 45.421875 C 545.355469 45.921875 545.078125 46.304688 544.71875 46.585938 C 544.371094 46.878906 543.90625 47.097656 543.324219 47.253906 L 543.050781 46.234375 C 543.480469 46.09375 543.824219 45.925781 544.074219 45.734375 C 544.324219 45.550781 544.519531 45.28125 544.675781 44.921875 C 544.828125 44.570312 544.90625 44.175781 544.90625 43.734375 C 544.90625 43.21875 544.824219 42.765625 544.65625 42.378906 C 544.5 42.003906 544.292969 41.695312 544.03125 41.460938 C 543.78125 41.238281 543.5 41.066406 543.199219 40.941406 C 542.65625 40.71875 542.078125 40.609375 541.46875 40.609375 C 540.6875 40.609375 540.042969 40.738281 539.53125 41.003906 C 539.015625 41.265625 538.636719 41.648438 538.386719 42.148438 C 538.136719 42.648438 538.011719 43.179688 538.011719 43.753906 C 538.011719 44.253906 538.097656 44.734375 538.28125 45.191406 C 538.472656 45.660156 538.683594 46.023438 538.90625 46.273438 L 540.511719 46.273438 Z M 540.511719 43.734375 "/>
<path style=" stroke:none;fill-rule:nonzero;fill:rgb(0%,0%,0%);fill-opacity:1;" d="M 537.136719 48.902344 L 545.71875 48.902344 L 545.71875 49.941406 L 537.136719 49.941406 Z M 537.136719 48.902344 "/>
<path style=" stroke:none;fill-rule:nonzero;fill:rgb(0%,0%,0%);fill-opacity:1;" d="M 540.238281 51.191406 C 541.390625 51.191406 542.246094 51.507812 542.800781 52.148438 C 543.261719 52.691406 543.488281 53.34375 543.488281 54.109375 C 543.488281 54.96875 543.207031 55.671875 542.65625 56.210938 C 542.097656 56.753906 541.328125 57.023438 540.34375 57.023438 C 539.535156 57.023438 538.90625 56.898438 538.449219 56.648438 C 537.988281 56.410156 537.625 56.066406 537.363281 55.609375 C 537.113281 55.148438 536.988281 54.648438 536.988281 54.109375 C 536.988281 53.234375 537.265625 52.523438 537.824219 51.984375 C 538.390625 51.453125 539.199219 51.191406 540.238281 51.191406 Z M 540.238281 52.273438 C 539.449219 52.273438 538.847656 52.445312 538.449219 52.796875 C 538.058594 53.140625 537.863281 53.578125 537.863281 54.109375 C 537.863281 54.632812 538.058594 55.070312 538.449219 55.421875 C 538.847656 55.765625 539.457031 55.941406 540.28125 55.941406 C 541.042969 55.941406 541.625 55.765625 542.03125 55.421875 C 542.433594 55.070312 542.636719 54.632812 542.636719 54.109375 C 542.636719 53.578125 542.433594 53.140625 542.03125 52.796875 C 541.640625 52.445312 541.042969 52.273438 540.238281 52.273438 Z M 540.238281 52.273438 "/>
<path style=" stroke:none;fill-rule:nonzero;fill:rgb(0%,0%,0%);fill-opacity:1;" d="M 537.136719 59.242188 L 537.136719 58.261719 L 545.71875 58.261719 L 545.71875 59.304688 L 542.65625 59.304688 C 543.207031 59.746094 543.488281 60.3125 543.488281 61.011719 C 543.488281 61.398438 543.410156 61.761719 543.261719 62.09375 C 543.105469 62.4375 542.890625 62.726562 542.613281 62.949219 C 542.332031 63.167969 541.996094 63.34375 541.59375 63.46875 C 541.203125 63.59375 540.785156 63.65625 540.34375 63.65625 C 539.269531 63.65625 538.449219 63.390625 537.863281 62.867188 C 537.28125 62.335938 536.988281 61.703125 536.988281 60.96875 C 536.988281 60.230469 537.292969 59.65625 537.90625 59.242188 Z M 540.300781 59.21875 C 539.550781 59.21875 539.011719 59.324219 538.675781 59.53125 C 538.136719 59.867188 537.863281 60.308594 537.863281 60.867188 C 537.863281 61.335938 538.0625 61.742188 538.46875 62.074219 C 538.871094 62.40625 539.46875 62.574219 540.261719 62.574219 C 541.0625 62.574219 541.660156 62.414062 542.050781 62.09375 C 542.4375 61.773438 542.636719 61.386719 542.636719 60.929688 C 542.636719 60.453125 542.433594 60.054688 542.03125 59.71875 C 541.625 59.386719 541.050781 59.21875 540.300781 59.21875 Z M 540.300781 59.21875 "/>
<path style=" stroke:none;fill-rule:nonzero;fill:rgb(0%,0%,0%);fill-opacity:1;" d="M 537.90625 69 C 537.574219 68.609375 537.332031 68.234375 537.199219 67.875 C 537.0625 67.507812 536.988281 67.125 536.988281 66.707031 C 536.988281 66.023438 537.15625 65.5 537.488281 65.125 C 537.824219 64.757812 538.25 64.582031 538.78125 64.582031 C 539.082031 64.582031 539.363281 64.648438 539.613281 64.789062 C 539.863281 64.925781 540.0625 65.109375 540.21875 65.332031 C 540.371094 65.550781 540.488281 65.800781 540.574219 66.082031 C 540.613281 66.289062 540.660156 66.601562 540.71875 67.019531 C 540.8125 67.878906 540.9375 68.507812 541.09375 68.914062 C 541.230469 68.914062 541.324219 68.914062 541.363281 68.914062 C 541.792969 68.914062 542.09375 68.816406 542.261719 68.625 C 542.511719 68.34375 542.636719 67.941406 542.636719 67.414062 C 542.636719 66.914062 542.542969 66.546875 542.363281 66.3125 C 542.199219 66.070312 541.890625 65.898438 541.449219 65.789062 L 541.574219 64.769531 C 542.015625 64.851562 542.371094 65 542.636719 65.207031 C 542.910156 65.425781 543.121094 65.738281 543.261719 66.144531 C 543.410156 66.5625 543.488281 67.03125 543.488281 67.5625 C 543.488281 68.101562 543.425781 68.53125 543.300781 68.851562 C 543.175781 69.1875 543.015625 69.425781 542.824219 69.582031 C 542.640625 69.75 542.40625 69.859375 542.113281 69.914062 C 541.933594 69.957031 541.613281 69.976562 541.15625 69.976562 L 539.738281 69.976562 C 538.765625 69.976562 538.144531 70 537.886719 70.039062 C 537.621094 70.082031 537.371094 70.171875 537.136719 70.3125 L 537.136719 69.207031 C 537.355469 69.09375 537.613281 69.023438 537.90625 69 Z M 540.261719 68.914062 C 540.105469 68.523438 539.972656 67.945312 539.863281 67.1875 C 539.792969 66.753906 539.71875 66.445312 539.636719 66.269531 C 539.5625 66.085938 539.453125 65.945312 539.300781 65.851562 C 539.144531 65.753906 538.980469 65.707031 538.800781 65.707031 C 538.519531 65.707031 538.285156 65.8125 538.09375 66.019531 C 537.910156 66.226562 537.824219 66.539062 537.824219 66.957031 C 537.824219 67.359375 537.910156 67.71875 538.09375 68.039062 C 538.269531 68.359375 538.515625 68.59375 538.824219 68.75 C 539.058594 68.859375 539.40625 68.914062 539.863281 68.914062 Z M 540.261719 68.914062 "/>
<path style=" stroke:none;fill-rule:nonzero;fill:rgb(0%,0%,0%);fill-opacity:1;" d="M 537.136719 71.589844 L 545.71875 71.589844 L 545.71875 72.632812 L 537.136719 72.632812 Z M 537.136719 71.589844 "/>
<path style=" stroke:none;fill-rule:nonzero;fill:rgb(0%,0%,0%);fill-opacity:1;" d="M 537.136719 76.136719 L 545.71875 79.449219 L 545.71875 80.65625 L 537.136719 84.179688 L 537.136719 82.886719 L 539.738281 81.886719 L 539.738281 78.28125 L 537.136719 77.34375 Z M 540.65625 78.617188 L 540.65625 81.53125 L 543.050781 80.636719 C 543.769531 80.355469 544.363281 80.15625 544.824219 80.03125 C 544.265625 79.917969 543.71875 79.761719 543.175781 79.554688 Z M 540.65625 78.617188 "/>
<path style=" stroke:none;fill-rule:nonzero;fill:rgb(0%,0%,0%);fill-opacity:1;" d="M 537.136719 86.464844 L 543.363281 84.089844 L 543.363281 85.214844 L 539.636719 86.550781 C 539.230469 86.683594 538.8125 86.820312 538.386719 86.945312 C 538.703125 87.039062 539.09375 87.175781 539.550781 87.339844 L 543.363281 88.714844 L 543.363281 89.800781 L 537.136719 87.445312 Z M 537.136719 86.464844 "/>
<path style=" stroke:none;fill-rule:nonzero;fill:rgb(0%,0%,0%);fill-opacity:1;" d="M 539.136719 94.988281 L 539.011719 96.089844 C 538.371094 95.910156 537.871094 95.582031 537.511719 95.113281 C 537.160156 94.652344 536.988281 94.058594 536.988281 93.339844 C 536.988281 92.433594 537.265625 91.714844 537.824219 91.175781 C 538.390625 90.644531 539.183594 90.382812 540.199219 90.382812 C 541.238281 90.382812 542.042969 90.652344 542.613281 91.195312 C 543.199219 91.738281 543.488281 92.433594 543.488281 93.300781 C 543.488281 94.132812 543.203125 94.804688 542.636719 95.320312 C 542.078125 95.847656 541.285156 96.113281 540.261719 96.113281 C 540.1875 96.113281 540.09375 96.113281 539.96875 96.113281 L 539.96875 91.464844 C 539.285156 91.507812 538.765625 91.699219 538.40625 92.050781 C 538.042969 92.394531 537.863281 92.832031 537.863281 93.363281 C 537.863281 93.746094 537.957031 94.074219 538.15625 94.339844 C 538.363281 94.617188 538.6875 94.832031 539.136719 94.988281 Z M 540.84375 91.527344 L 540.84375 95.007812 C 541.371094 94.964844 541.765625 94.832031 542.03125 94.613281 C 542.433594 94.277344 542.636719 93.839844 542.636719 93.300781 C 542.636719 92.808594 542.46875 92.402344 542.136719 92.070312 C 541.8125 91.746094 541.386719 91.570312 540.84375 91.527344 Z M 540.84375 91.527344 "/>
<path style=" stroke:none;fill-rule:nonzero;fill:rgb(0%,0%,0%);fill-opacity:1;" d="M 537.136719 97.535156 L 545.71875 97.535156 L 545.71875 100.785156 C 545.71875 101.355469 545.6875 101.792969 545.636719 102.097656 C 545.5625 102.515625 545.433594 102.859375 545.238281 103.140625 C 545.042969 103.433594 544.765625 103.660156 544.40625 103.828125 C 544.058594 104.003906 543.667969 104.097656 543.238281 104.097656 C 542.5 104.097656 541.886719 103.859375 541.386719 103.390625 C 540.886719 102.933594 540.636719 102.097656 540.636719 100.890625 L 540.636719 98.683594 L 537.136719 98.683594 Z M 541.636719 98.683594 L 541.636719 100.910156 C 541.636719 101.628906 541.769531 102.144531 542.050781 102.453125 C 542.328125 102.769531 542.707031 102.933594 543.199219 102.933594 C 543.558594 102.933594 543.863281 102.839844 544.113281 102.660156 C 544.375 102.480469 544.550781 102.234375 544.636719 101.933594 C 544.6875 101.75 544.71875 101.394531 544.71875 100.871094 L 544.71875 98.683594 Z M 541.636719 98.683594 "/>
<path style=" stroke:none;fill-rule:nonzero;fill:rgb(0%,0%,0%);fill-opacity:1;" d="M 540.238281 105.019531 C 541.390625 105.019531 542.246094 105.335938 542.800781 105.976562 C 543.261719 106.519531 543.488281 107.171875 543.488281 107.9375 C 543.488281 108.796875 543.207031 109.5 542.65625 110.039062 C 542.097656 110.582031 541.328125 110.851562 540.34375 110.851562 C 539.535156 110.851562 538.90625 110.726562 538.449219 110.476562 C 537.988281 110.238281 537.625 109.894531 537.363281 109.4375 C 537.113281 108.976562 536.988281 108.476562 536.988281 107.9375 C 536.988281 107.0625 537.265625 106.351562 537.824219 105.8125 C 538.390625 105.28125 539.199219 105.019531 540.238281 105.019531 Z M 540.238281 106.101562 C 539.449219 106.101562 538.847656 106.273438 538.449219 106.625 C 538.058594 106.96875 537.863281 107.40625 537.863281 107.9375 C 537.863281 108.460938 538.058594 108.898438 538.449219 109.25 C 538.847656 109.59375 539.457031 109.769531 540.28125 109.769531 C 541.042969 109.769531 541.625 109.59375 542.03125 109.25 C 542.433594 108.898438 542.636719 108.460938 542.636719 107.9375 C 542.636719 107.40625 542.433594 106.96875 542.03125 106.625 C 541.640625 106.273438 541.042969 106.101562 540.238281 106.101562 Z M 540.238281 106.101562 "/>
<path style=" stroke:none;fill-rule:nonzero;fill:rgb(0%,0%,0%);fill-opacity:1;" d="M 540.238281 111.695312 C 541.390625 111.695312 542.246094 112.011719 542.800781 112.652344 C 543.261719 113.195312 543.488281 113.84375 543.488281 114.609375 C 543.488281 115.46875 543.207031 116.171875 542.65625 116.714844 C 542.097656 117.257812 541.328125 117.527344 540.34375 117.527344 C 539.535156 117.527344 538.90625 117.402344 538.449219 117.152344 C 537.988281 116.914062 537.625 116.570312 537.363281 116.109375 C 537.113281 115.652344 536.988281 115.152344 536.988281 114.609375 C 536.988281 113.734375 537.265625 113.027344 537.824219 112.484375 C 538.390625 111.953125 539.199219 111.695312 540.238281 111.695312 Z M 540.238281 112.777344 C 539.449219 112.777344 538.847656 112.949219 538.449219 113.296875 C 538.058594 113.640625 537.863281 114.078125 537.863281 114.609375 C 537.863281 115.136719 538.058594 115.574219 538.449219 115.921875 C 538.847656 116.265625 539.457031 116.445312 540.28125 116.445312 C 541.042969 116.445312 541.625 116.265625 542.03125 115.921875 C 542.433594 115.574219 542.636719 115.136719 542.636719 114.609375 C 542.636719 114.078125 542.433594 113.640625 542.03125 113.296875 C 541.640625 112.949219 541.042969 112.777344 540.238281 112.777344 Z M 540.238281 112.777344 "/>
<path style=" stroke:none;fill-rule:nonzero;fill:rgb(0%,0%,0%);fill-opacity:1;" d="M 537.136719 118.742188 L 545.71875 118.742188 L 545.71875 119.785156 L 537.136719 119.785156 Z M 537.136719 118.742188 "/>
<path style="fill:none;stroke-width:1;stroke-linecap:round;stroke-linejoin:round;stroke:rgb(0%,0%,0%);stroke-opacity:1;stroke-miterlimit:10;" d="M 303.651367 -725.834961 L 303.686523 -731.805664 " transform="matrix(0,1.333333,-1.333333,0,-454.666667,-325.333333)"/>
<path style="fill:none;stroke-width:1;stroke-linecap:butt;stroke-linejoin:miter;stroke:rgb(0%,0%,0%);stroke-opacity:1;stroke-miterlimit:10;" d="M 303.71582 -735.804688 L 303.686523 -731.805664 M 302.186523 -731.811523 L 303.71582 -735.804688 L 305.186523 -731.793945 " transform="matrix(0,1.333333,-1.333333,0,-454.666667,-325.333333)"/>
<path style="fill:none;stroke-width:1;stroke-linecap:round;stroke-linejoin:round;stroke:rgb(0%,0%,0%);stroke-opacity:1;stroke-miterlimit:10;" d="M 256.46582 -785.574219 L 350.464844 -785.574219 L 350.464844 -767.574219 L 256.46582 -767.574219 Z M 256.46582 -785.574219 " transform="matrix(0,1.333333,-1.333333,0,-454.666667,-325.333333)"/>
<path style=" stroke:none;fill-rule:nonzero;fill:rgb(0%,0%,0%);fill-opacity:1;" d="M 576.960938 72.265625 L 585.546875 72.265625 L 585.546875 78.058594 L 584.546875 78.058594 L 584.546875 73.414062 L 581.878906 73.414062 L 581.878906 77.433594 L 580.859375 77.433594 L 580.859375 73.414062 L 576.960938 73.414062 Z M 576.960938 72.265625 "/>
<path style=" stroke:none;fill-rule:nonzero;fill:rgb(0%,0%,0%);fill-opacity:1;" d="M 579.984375 85.679688 L 579.691406 86.804688 C 578.757812 86.566406 578.046875 86.136719 577.546875 85.511719 C 577.054688 84.898438 576.816406 84.144531 576.816406 83.242188 C 576.816406 82.324219 577.003906 81.574219 577.378906 80.992188 C 577.753906 80.410156 578.296875 79.960938 579.003906 79.660156 C 579.722656 79.367188 580.492188 79.222656 581.316406 79.222656 C 582.21875 79.222656 583.003906 79.386719 583.671875 79.722656 C 584.335938 80.066406 584.835938 80.554688 585.171875 81.179688 C 585.515625 81.816406 585.691406 82.511719 585.691406 83.261719 C 585.691406 84.121094 585.46875 84.847656 585.023438 85.429688 C 584.59375 86.023438 583.984375 86.433594 583.191406 86.660156 L 582.941406 85.535156 C 583.566406 85.335938 584.015625 85.054688 584.296875 84.679688 C 584.585938 84.304688 584.734375 83.824219 584.734375 83.242188 C 584.734375 82.585938 584.570312 82.039062 584.253906 81.597656 C 583.929688 81.148438 583.503906 80.835938 582.960938 80.660156 C 582.429688 80.476562 581.890625 80.386719 581.335938 80.386719 C 580.597656 80.386719 579.953125 80.492188 579.398438 80.699219 C 578.859375 80.917969 578.453125 81.253906 578.191406 81.699219 C 577.925781 82.144531 577.796875 82.628906 577.796875 83.160156 C 577.796875 83.792969 577.972656 84.332031 578.335938 84.761719 C 578.710938 85.207031 579.257812 85.511719 579.984375 85.679688 Z M 579.984375 85.679688 "/>
<path style="fill:none;stroke-width:1;stroke-linecap:round;stroke-linejoin:round;stroke:rgb(0%,0%,0%);stroke-opacity:1;stroke-miterlimit:10;" d="M 303.686523 -755.703125 L 303.625 -761.676758 " transform="matrix(0,1.333333,-1.333333,0,-454.666667,-325.333333)"/>
<path style="fill:none;stroke-width:1;stroke-linecap:butt;stroke-linejoin:miter;stroke:rgb(0%,0%,0%);stroke-opacity:1;stroke-miterlimit:10;" d="M 303.581055 -765.675781 L 303.625 -761.676758 M 302.125 -761.65918 L 303.581055 -765.675781 L 305.125 -761.691406 " transform="matrix(0,1.333333,-1.333333,0,-454.666667,-325.333333)"/>
<path style="fill:none;stroke-width:1;stroke-linecap:round;stroke-linejoin:round;stroke:rgb(0%,0%,0%);stroke-opacity:1;stroke-miterlimit:10;" d="M 303.727539 -417.253906 L 303.674805 -424.660156 " transform="matrix(0,1.333333,-1.333333,0,-454.666667,-325.333333)"/>
<path style="fill:none;stroke-width:1;stroke-linecap:butt;stroke-linejoin:miter;stroke:rgb(0%,0%,0%);stroke-opacity:1;stroke-miterlimit:10;" d="M 303.663086 -426.262695 L 303.674805 -424.660156 M 303.074219 -424.657227 L 303.663086 -426.262695 L 304.272461 -424.663086 " transform="matrix(0,1.333333,-1.333333,0,-454.666667,-325.333333)"/>
<path style="fill:none;stroke-width:1;stroke-linecap:round;stroke-linejoin:miter;stroke:rgb(0%,0%,0%);stroke-opacity:1;stroke-miterlimit:10;" d="M 257.438477 -717.907227 L 257.675781 -541.674805 " transform="matrix(0,1.333333,-1.333333,0,-454.666667,-325.333333)"/>
<path style="fill:none;stroke-width:1;stroke-linecap:butt;stroke-linejoin:miter;stroke:rgb(0%,0%,0%);stroke-opacity:1;stroke-miterlimit:10;" d="M 257.675781 -541.674805 L 257.68457 -533.676758 M 252.683594 -533.670898 L 262.682617 -533.682617 M 255.674805 -541.674805 L 257.68457 -534.675781 L 259.676758 -541.680664 " transform="matrix(0,1.333333,-1.333333,0,-454.666667,-325.333333)"/>
<path style="fill:none;stroke-width:1;stroke-linecap:butt;stroke-linejoin:miter;stroke:rgb(0%,0%,0%);stroke-opacity:1;stroke-miterlimit:10;" d="M 257.438477 -717.907227 L 257.485352 -725.902344 M 262.483398 -725.875977 L 252.484375 -725.93457 M 259.436523 -717.889648 L 257.479492 -724.90332 L 255.4375 -717.918945 " transform="matrix(0,1.333333,-1.333333,0,-454.666667,-325.333333)"/>
<path style=" stroke:none;fill-rule:nonzero;fill:rgb(100%,100%,100%);fill-opacity:1;" d="M 397.1875 1.171875 L 397.769531 34.503906 L 370.71875 34.980469 L 370.136719 1.640625 Z M 397.1875 1.171875 "/>
<path style=" stroke:none;fill-rule:nonzero;fill:rgb(0%,0%,0%);fill-opacity:1;" d="M 376.140625 19.753906 L 377.203125 19.585938 C 377.339844 20.183594 377.546875 20.617188 377.828125 20.878906 C 378.121094 21.128906 378.480469 21.246094 378.914062 21.230469 C 379.398438 21.230469 379.808594 21.058594 380.140625 20.710938 C 380.484375 20.367188 380.652344 19.933594 380.640625 19.417969 C 380.625 18.933594 380.460938 18.539062 380.140625 18.230469 C 379.820312 17.929688 379.417969 17.773438 378.933594 17.773438 C 378.726562 17.773438 378.480469 17.824219 378.203125 17.917969 L 378.308594 16.980469 C 378.375 16.996094 378.433594 17.003906 378.476562 17.003906 C 378.917969 16.992188 379.3125 16.867188 379.664062 16.628906 C 380.023438 16.378906 380.203125 16.011719 380.203125 15.523438 C 380.1875 15.136719 380.046875 14.824219 379.789062 14.585938 C 379.523438 14.335938 379.183594 14.210938 378.765625 14.210938 C 378.359375 14.226562 378.023438 14.367188 377.746094 14.628906 C 377.480469 14.894531 377.3125 15.285156 377.246094 15.792969 L 376.183594 15.605469 C 376.308594 14.898438 376.589844 14.351562 377.039062 13.960938 C 377.480469 13.558594 378.042969 13.351562 378.726562 13.335938 C 379.195312 13.335938 379.625 13.433594 380.015625 13.628906 C 380.417969 13.824219 380.726562 14.097656 380.933594 14.441406 C 381.152344 14.773438 381.273438 15.136719 381.289062 15.523438 C 381.289062 15.898438 381.1875 16.246094 380.996094 16.566406 C 380.796875 16.871094 380.507812 17.117188 380.121094 17.292969 C 380.632812 17.410156 381.027344 17.644531 381.308594 18.003906 C 381.601562 18.367188 381.75 18.824219 381.765625 19.378906 C 381.777344 20.128906 381.515625 20.769531 380.976562 21.292969 C 380.433594 21.824219 379.746094 22.089844 378.914062 22.105469 C 378.164062 22.117188 377.527344 21.914062 377.015625 21.480469 C 376.515625 21.039062 376.226562 20.460938 376.140625 19.753906 Z M 376.140625 19.753906 "/>
<g clip-path="url(#clip3)" clip-rule="nonzero">
<g clip-path="url(#clip4)" clip-rule="nonzero">
<g clip-path="url(#clip5)" clip-rule="nonzero">
<g clip-path="url(#clip6)" clip-rule="nonzero">
<path style=" stroke:none;fill-rule:nonzero;fill:rgb(0%,0%,0%);fill-opacity:1;" d="M 389.359375 18.585938 L 391.714844 16.167969 C 391.820312 16.023438 391.859375 16.003906 391.859375 15.917969 C 391.859375 15.773438 391.734375 15.667969 391.609375 15.667969 C 391.527344 15.667969 391.464844 15.710938 391.359375 15.835938 L 389.007812 18.253906 L 386.570312 15.917969 C 386.445312 15.773438 386.402344 15.753906 386.320312 15.753906 C 386.195312 15.753906 386.070312 15.878906 386.070312 16.023438 C 386.070312 16.105469 386.132812 16.148438 386.257812 16.253906 L 388.652344 18.585938 L 386.320312 21.023438 C 386.214844 21.148438 386.171875 21.230469 386.171875 21.292969 C 386.171875 21.441406 386.296875 21.523438 386.421875 21.523438 C 386.507812 21.523438 386.546875 21.503906 386.671875 21.355469 L 389.027344 18.941406 L 391.464844 21.273438 C 391.570312 21.398438 391.652344 21.441406 391.714844 21.441406 C 391.859375 21.441406 391.964844 21.335938 391.964844 21.191406 C 391.964844 21.105469 391.921875 21.085938 391.777344 20.941406 Z M 389.359375 18.585938 "/>
<path style=" stroke:none;fill-rule:nonzero;fill:rgb(0%,0%,0%);fill-opacity:1;" d="M 389.359375 18.585938 L 391.714844 16.167969 C 391.820312 16.023438 391.859375 16.003906 391.859375 15.917969 C 391.859375 15.773438 391.734375 15.667969 391.609375 15.667969 C 391.527344 15.667969 391.464844 15.710938 391.359375 15.835938 L 389.007812 18.253906 L 386.570312 15.917969 C 386.445312 15.773438 386.402344 15.753906 386.320312 15.753906 C 386.195312 15.753906 386.070312 15.878906 386.070312 16.023438 C 386.070312 16.105469 386.132812 16.148438 386.257812 16.253906 L 388.652344 18.585938 L 386.320312 21.023438 C 386.214844 21.148438 386.171875 21.230469 386.171875 21.292969 C 386.171875 21.441406 386.296875 21.523438 386.421875 21.523438 C 386.507812 21.523438 386.546875 21.503906 386.671875 21.355469 L 389.027344 18.941406 L 391.464844 21.273438 C 391.570312 21.398438 391.652344 21.441406 391.714844 21.441406 C 391.859375 21.441406 391.964844 21.335938 391.964844 21.191406 C 391.964844 21.105469 391.921875 21.085938 391.777344 20.941406 Z M 389.359375 18.585938 "/>
</g>
</g>
</g>
</g>
<path style="fill:none;stroke-width:1;stroke-linecap:round;stroke-linejoin:miter;stroke:rgb(0%,0%,0%);stroke-opacity:1;stroke-miterlimit:10;" d="M 257.30957 -514.144531 L 257.415039 -432.737305 " transform="matrix(0,1.333333,-1.333333,0,-454.666667,-325.333333)"/>
<path style="fill:none;stroke-width:1;stroke-linecap:butt;stroke-linejoin:miter;stroke:rgb(0%,0%,0%);stroke-opacity:1;stroke-miterlimit:10;" d="M 257.415039 -432.737305 L 257.426758 -424.739258 M 252.425781 -424.730469 L 262.424805 -424.745117 M 255.414062 -432.734375 L 257.420898 -425.738281 L 259.413086 -432.743164 " transform="matrix(0,1.333333,-1.333333,0,-454.666667,-325.333333)"/>
<path style="fill:none;stroke-width:1;stroke-linecap:butt;stroke-linejoin:miter;stroke:rgb(0%,0%,0%);stroke-opacity:1;stroke-miterlimit:10;" d="M 257.30957 -514.144531 L 257.359375 -522.145508 M 262.360352 -522.113281 L 252.358398 -522.174805 M 259.307617 -514.132812 L 257.350586 -521.143555 L 255.308594 -514.15625 " transform="matrix(0,1.333333,-1.333333,0,-454.666667,-325.333333)"/>
<path style=" stroke:none;fill-rule:nonzero;fill:rgb(100%,100%,100%);fill-opacity:1;" d="M 189.4375 0.910156 L 190.015625 34.25 L 162.964844 34.71875 L 162.378906 1.386719 Z M 189.4375 0.910156 "/>
<path style=" stroke:none;fill-rule:nonzero;fill:rgb(0%,0%,0%);fill-opacity:1;" d="M 173.949219 20.640625 L 173.972656 21.660156 L 168.285156 21.765625 C 168.285156 21.515625 168.316406 21.273438 168.386719 21.035156 C 168.539062 20.632812 168.769531 20.242188 169.074219 19.867188 C 169.394531 19.492188 169.847656 19.054688 170.429688 18.554688 C 171.347656 17.765625 171.960938 17.148438 172.285156 16.703125 C 172.601562 16.242188 172.761719 15.816406 172.761719 15.410156 C 172.746094 14.992188 172.585938 14.648438 172.285156 14.367188 C 171.992188 14.09375 171.605469 13.953125 171.136719 13.953125 C 170.621094 13.96875 170.210938 14.132812 169.910156 14.453125 C 169.601562 14.757812 169.457031 15.179688 169.472656 15.722656 L 168.386719 15.617188 C 168.441406 14.800781 168.707031 14.175781 169.179688 13.742188 C 169.664062 13.316406 170.316406 13.09375 171.136719 13.078125 C 171.957031 13.066406 172.605469 13.285156 173.097656 13.742188 C 173.582031 14.191406 173.832031 14.742188 173.847656 15.410156 C 173.847656 15.757812 173.773438 16.097656 173.636719 16.429688 C 173.511719 16.765625 173.289062 17.117188 172.972656 17.492188 C 172.648438 17.867188 172.121094 18.382812 171.386719 19.035156 C 170.746094 19.578125 170.335938 19.945312 170.160156 20.140625 C 169.992188 20.335938 169.851562 20.523438 169.742188 20.703125 Z M 173.949219 20.640625 "/>
<g clip-path="url(#clip7)" clip-rule="nonzero">
<g clip-path="url(#clip8)" clip-rule="nonzero">
<g clip-path="url(#clip9)" clip-rule="nonzero">
<g clip-path="url(#clip10)" clip-rule="nonzero">
<path style=" stroke:none;fill-rule:nonzero;fill:rgb(0%,0%,0%);fill-opacity:1;" d="M 181.351562 18.183594 L 183.703125 15.765625 C 183.808594 15.621094 183.851562 15.597656 183.851562 15.515625 C 183.851562 15.371094 183.726562 15.265625 183.601562 15.265625 C 183.515625 15.265625 183.453125 15.308594 183.351562 15.433594 L 180.996094 17.847656 L 178.558594 15.515625 C 178.433594 15.371094 178.390625 15.347656 178.308594 15.347656 C 178.183594 15.347656 178.058594 15.472656 178.058594 15.621094 C 178.058594 15.703125 178.121094 15.746094 178.246094 15.847656 L 180.640625 18.183594 L 178.308594 20.621094 C 178.203125 20.746094 178.164062 20.828125 178.164062 20.890625 C 178.164062 21.035156 178.289062 21.121094 178.414062 21.121094 C 178.496094 21.121094 178.539062 21.097656 178.664062 20.953125 L 181.015625 18.535156 L 183.453125 20.871094 C 183.558594 20.996094 183.640625 21.035156 183.703125 21.035156 C 183.851562 21.035156 183.953125 20.933594 183.953125 20.785156 C 183.953125 20.703125 183.914062 20.683594 183.765625 20.535156 Z M 181.351562 18.183594 "/>
<path style=" stroke:none;fill-rule:nonzero;fill:rgb(0%,0%,0%);fill-opacity:1;" d="M 181.351562 18.183594 L 183.703125 15.765625 C 183.808594 15.621094 183.851562 15.597656 183.851562 15.515625 C 183.851562 15.371094 183.726562 15.265625 183.601562 15.265625 C 183.515625 15.265625 183.453125 15.308594 183.351562 15.433594 L 180.996094 17.847656 L 178.558594 15.515625 C 178.433594 15.371094 178.390625 15.347656 178.308594 15.347656 C 178.183594 15.347656 178.058594 15.472656 178.058594 15.621094 C 178.058594 15.703125 178.121094 15.746094 178.246094 15.847656 L 180.640625 18.183594 L 178.308594 20.621094 C 178.203125 20.746094 178.164062 20.828125 178.164062 20.890625 C 178.164062 21.035156 178.289062 21.121094 178.414062 21.121094 C 178.496094 21.121094 178.539062 21.097656 178.664062 20.953125 L 181.015625 18.535156 L 183.453125 20.871094 C 183.558594 20.996094 183.640625 21.035156 183.703125 21.035156 C 183.851562 21.035156 183.953125 20.933594 183.953125 20.785156 C 183.953125 20.703125 183.914062 20.683594 183.765625 20.535156 Z M 181.351562 18.183594 "/>
</g>
</g>
</g>
</g>
</g>
</svg>
